<?xml version="1.0" standalone="no"?>
<!DOCTYPE svg PUBLIC "-//W3C//DTD SVG 20010904//EN"
 "http://www.w3.org/TR/2001/REC-SVG-20010904/DTD/svg10.dtd">
<svg version="1.0" xmlns="http://www.w3.org/2000/svg"
 width="1056.000000pt" height="1084.000000pt" viewBox="0 0 1056.000000 1084.000000"
 preserveAspectRatio="xMidYMid meet">

<g transform="translate(0.000000,1084.000000) scale(0.100000,-0.100000)"
fill="#000000" stroke="none">
<path d="M3619 7895 c-116 -18 -193 -39 -324 -87 -172 -63 -494 -231 -535
-278 -10 -11 -60 -27 -140 -44 -135 -29 -158 -41 -310 -155 -180 -135 -395
-327 -431 -385 -16 -26 -32 -32 -166 -67 -161 -41 -227 -65 -374 -139 -136
-67 -201 -115 -276 -202 -30 -35 -43 -59 -43 -80 0 -33 34 -116 92 -222 l38
-69 0 -342 c0 -329 -1 -343 -20 -360 -11 -10 -20 -27 -20 -37 0 -10 9 -36 20
-58 19 -37 20 -59 20 -483 0 -383 -2 -446 -15 -457 -19 -16 -19 -44 0 -60 13
-11 15 -47 13 -238 l-3 -226 -40 -8 c-115 -21 -142 -32 -213 -86 -42 -32 -84
-73 -97 -96 -13 -23 -116 -205 -230 -406 -114 -201 -243 -427 -286 -504 l-79
-138 0 -93 c0 -86 2 -96 26 -124 42 -50 68 -53 432 -49 183 1 332 3 332 3 0 0
-13 -92 -30 -204 -38 -262 -42 -446 -11 -535 76 -216 245 -311 668 -376 295
-45 774 -73 1208 -69 263 2 163 -11 1530 204 440 69 1054 166 1365 215 311 49
999 157 1530 240 531 84 1327 209 1770 278 l804 127 3 125 c1 69 5 142 8 163
4 32 1 41 -21 62 -14 13 -49 31 -78 40 -28 8 -202 64 -386 123 l-334 108 -7
32 c-3 17 -12 355 -19 749 -6 395 -15 747 -20 783 -8 62 -6 69 30 150 32 72
37 91 31 125 -5 30 -11 39 -24 37 -9 -2 -17 3 -17 11 0 25 31 106 46 118 18
15 18 58 -1 83 -11 14 -15 46 -15 108 l0 88 25 -6 c34 -8 80 27 110 86 25 49
40 60 80 60 25 0 41 15 46 44 2 11 18 27 34 36 40 22 42 67 3 89 -15 9 -140
88 -277 176 -250 159 -564 360 -906 578 -99 63 -407 260 -685 437 -754 482
-707 453 -739 447 -16 -3 -91 -33 -167 -65 -226 -96 -175 -91 -496 -53 -156
18 -292 39 -303 46 -11 7 -87 74 -170 150 -82 76 -159 143 -170 150 -11 7 -74
27 -140 45 -109 29 -130 38 -220 99 -390 265 -803 403 -1198 400 -78 -1 -181
-7 -228 -14z m439 -36 c188 -20 427 -92 629 -189 116 -55 275 -147 313 -180
l25 -22 -25 6 c-295 70 -699 128 -1013 146 -276 15 -714 -13 -1007 -65 -47 -8
-96 -15 -110 -15 -24 1 -25 1 -5 16 34 25 215 120 310 162 151 66 334 121 470
141 87 12 300 13 413 0z m97 -290 c343 -33 747 -105 1075 -190 140 -37 164
-46 186 -70 23 -26 14 -25 -129 15 -536 150 -1163 220 -1764 196 -131 -5 -260
-12 -288 -15 -257 -27 -365 -40 -520 -67 -241 -41 -244 -41 -224 -29 21 13
233 62 389 90 454 82 899 106 1275 70z m25 -79 c404 -30 802 -99 1152 -200 78
-23 152 -50 166 -61 33 -25 23 -24 -110 11 -321 84 -719 146 -1158 181 -221
17 -756 14 -1015 -6 -140 -11 -258 -15 -325 -11 -97 6 -105 6 -120 -14 -12
-16 -41 -24 -140 -40 -69 -11 -160 -27 -203 -36 -43 -9 -81 -13 -84 -11 -14
14 81 58 165 77 200 44 545 91 802 109 169 12 714 13 870 1z m-130 -84 c452
-12 980 -90 1406 -207 86 -24 118 -38 139 -59 l27 -28 -113 29 c-268 68 -628
130 -944 163 -273 28 -436 36 -795 36 -265 0 -392 4 -500 16 -80 9 -149 20
-153 24 -5 4 36 11 90 15 117 9 539 22 603 18 25 -1 133 -5 240 -7z m-545
-117 c319 -38 1061 -128 1649 -199 588 -72 1076 -130 1085 -130 26 0 0 -15
-84 -49 l-80 -32 -305 35 c-168 20 -339 41 -380 46 -107 15 -490 60 -590 71
-47 4 -119 13 -160 19 -41 6 -151 19 -245 30 -443 51 -786 92 -845 101 -36 5
-92 11 -125 14 -33 3 -151 17 -261 30 -111 14 -214 25 -228 25 -21 0 -33 11
-61 55 -19 30 -35 57 -35 60 0 3 19 4 43 0 23 -3 303 -37 622 -76z m-680 21
c14 -22 25 -47 25 -56 0 -10 -31 -65 -68 -123 -38 -58 -91 -143 -117 -188 -27
-46 -52 -83 -55 -83 -4 0 -15 8 -24 19 -16 18 -12 29 96 245 62 124 114 226
115 226 2 0 14 -18 28 -40z m-85 25 c0 -4 -6 -19 -14 -34 -14 -26 -22 -29
-103 -40 -48 -6 -162 -25 -252 -42 -90 -16 -166 -28 -168 -25 -8 8 83 67 122
77 53 15 352 67 388 68 15 1 27 -1 27 -4z m1495 -25 c458 -30 880 -93 1250
-187 77 -20 148 -36 157 -37 26 -3 35 -16 11 -16 -21 0 -1981 237 -2018 244
-47 8 454 5 600 -4z m-1551 -92 c-9 -18 -17 -34 -19 -36 -1 -1 -51 -9 -111
-17 -60 -9 -187 -29 -283 -46 -95 -16 -178 -28 -184 -26 -21 7 65 58 123 73
58 15 436 81 473 83 17 1 17 -1 1 -31z m296 -5 c0 -10 -4 -24 -9 -32 -7 -10
-12 -8 -25 10 -22 32 -20 39 9 39 17 0 25 -5 25 -17z m80 -5 c-1 -41 -13 -58
-42 -58 -27 0 -30 3 -24 23 3 12 6 28 6 35 0 7 13 12 30 12 17 0 30 -5 30 -12z
m-139 -53 l10 -20 -16 20 c-9 11 -21 29 -26 40 l-10 20 16 -20 c9 -11 21 -29
26 -40z m209 39 c0 -27 -20 -54 -40 -54 -23 0 -24 8 -10 44 11 29 50 37 50 10z
m-238 -45 c18 -24 23 -40 18 -49 -10 -17 -10 -18 -44 41 -14 25 -23 49 -19 53
7 7 8 7 45 -45z m308 42 c0 -13 -40 -61 -51 -61 -12 0 -11 12 1 44 9 24 50 38
50 17z m46 -35 c-14 -23 -46 -36 -46 -20 0 11 23 49 34 56 21 14 29 -11 12
-36z m67 28 c10 -10 -22 -64 -38 -64 -19 0 -19 4 0 40 15 30 26 36 38 24z m77
-16 c-1 -40 -13 -58 -41 -58 -32 0 -35 7 -17 45 12 26 58 37 58 13z m70 -14
c0 -24 -19 -54 -35 -54 -21 0 -26 15 -15 44 11 29 50 37 50 10z m58 -23 c-2
-18 -10 -27 -26 -29 -20 -3 -22 -1 -16 25 9 39 13 43 30 36 9 -3 14 -15 12
-32z m57 18 c13 -19 -4 -59 -25 -59 -17 0 -19 4 -14 28 11 44 25 55 39 31z
m-935 -20 c-15 -26 -8 -25 -210 -54 -96 -15 -233 -37 -304 -51 -70 -14 -130
-23 -133 -21 -2 3 9 15 25 28 21 18 59 30 151 48 173 33 399 69 444 70 35 1
37 0 27 -20z m222 -23 c22 -37 24 -47 13 -56 -11 -9 -19 -2 -40 34 -24 41 -26
66 -7 66 4 0 19 -20 34 -44z m773 34 c9 -15 -6 -60 -20 -60 -21 0 -26 16 -15
44 10 27 24 33 35 16z m67 -6 c3 -3 3 -17 -1 -32 -6 -19 -13 -26 -27 -24 -26
5 -26 6 -18 36 6 24 31 35 46 20z m74 -20 c-3 -9 -6 -22 -6 -30 0 -9 -11 -14
-29 -14 -29 0 -30 1 -20 30 8 23 17 30 36 30 19 0 24 -4 19 -16z m64 -6 c0
-22 -22 -48 -41 -48 -16 0 -19 4 -13 23 3 12 11 27 16 34 10 13 38 7 38 -9z
m65 2 c11 -18 -7 -60 -26 -60 -25 0 -34 23 -19 49 11 22 35 28 45 11z m120
-111 c561 -61 1028 -114 1039 -118 13 -5 -57 -37 -250 -115 -148 -60 -377
-153 -509 -206 -1048 -424 -1314 -530 -1324 -530 -8 0 -11 116 -11 431 l0 432
53 -7 c262 -32 515 -49 537 -36 20 13 -9 17 -120 19 -57 1 -181 11 -275 22
-93 10 -176 19 -182 19 -23 0 -12 200 11 200 6 0 470 -49 1031 -111z m-55 81
c0 -25 -4 -30 -25 -30 -28 0 -28 0 -15 34 14 37 40 34 40 -4z m-1146 -20 c28
-42 31 -56 17 -64 -10 -7 -44 44 -56 82 -10 35 10 26 39 -18z m1226 36 c0 -24
-23 -56 -40 -56 -20 0 -25 15 -14 44 5 14 54 24 54 12z m50 -36 c0 -22 -5 -30
-18 -30 -27 0 -32 9 -20 36 16 34 38 31 38 -6z m66 16 c9 -24 -13 -55 -36 -49
-24 6 -23 5 -8 38 12 27 35 33 44 11z m-1556 -3 c0 -5 -11 -26 -23 -48 -22
-39 -24 -40 -82 -42 -102 -4 -334 -24 -454 -39 -62 -8 -116 -12 -119 -10 -17
18 37 37 181 65 123 24 415 72 490 80 4 1 7 -2 7 -6z m1633 1 c3 -3 1 -17 -5
-30 -13 -28 -65 -36 -54 -8 3 9 6 22 6 30 0 14 41 20 53 8z m63 -26 c-3 -13
-6 -26 -6 -30 0 -8 -50 -11 -50 -3 0 2 5 16 12 30 15 33 53 35 44 3z m-1486
-89 c0 -6 -6 -9 -12 -7 -17 5 -59 88 -51 101 6 10 63 -75 63 -94z m1563 95
c13 -13 -17 -54 -40 -54 -25 0 -29 11 -13 41 10 18 40 26 53 13z m72 -31 c-9
-36 -9 -37 -39 -29 -23 6 -24 9 -14 31 7 17 19 25 36 25 21 0 23 -3 17 -27z
m70 -10 c-8 -35 -7 -33 -33 -26 -37 9 -20 53 21 53 16 0 18 -5 12 -27z m64 18
c19 -12 -3 -51 -29 -51 -22 0 -25 12 -10 41 12 21 18 23 39 10z m2679 -340
c301 -192 857 -546 1236 -788 380 -242 691 -444 693 -449 1 -5 -2 -16 -7 -24
-8 -12 -12 -11 -32 7 -13 11 -52 39 -88 61 -36 21 -153 95 -260 162 -274 173
-415 262 -725 457 -148 93 -518 325 -822 516 -303 191 -559 347 -569 347 -9 0
-294 -113 -633 -251 -1130 -462 -1882 -769 -2291 -935 -223 -91 -420 -171
-438 -179 -37 -17 -52 -19 -52 -7 0 4 19 15 43 24 48 19 178 73 937 388 294
122 560 232 590 245 74 30 1414 586 1665 691 110 46 201 83 203 84 1 0 249
-157 550 -349z m-2614 331 c6 -11 -21 -52 -35 -52 -13 0 -11 34 3 48 14 14 25
15 32 4z m56 -15 c0 -21 -24 -47 -36 -39 -16 10 1 52 21 52 8 0 15 -6 15 -13z
m-1945 -41 c14 -21 24 -45 21 -53 -11 -29 -36 6 -52 75 -8 32 -4 29 31 -22z
m2015 31 c0 -19 -21 -37 -42 -37 -21 0 -22 4 -8 31 12 21 50 26 50 6z m57 5
c21 -13 4 -52 -23 -52 -26 0 -30 11 -14 41 12 21 19 23 37 11z m92 -11 c23
-15 -4 -51 -39 -51 -32 0 -36 9 -20 41 11 20 36 24 59 10z m75 -7 c24 -9 -1
-54 -31 -54 -25 0 -26 3 -17 38 6 22 20 27 48 16z m80 -13 c10 -16 -28 -53
-46 -46 -14 6 -15 11 -6 31 11 24 42 33 52 15z m-2354 -45 c0 -5 7 -18 17 -28
13 -15 14 -23 4 -44 -9 -21 -14 -24 -26 -14 -21 17 -38 77 -30 108 6 26 7 26
21 8 8 -11 14 -24 14 -30z m206 -912 c-2 -6 -26 -19 -53 -29 -28 -10 -72 -40
-105 -71 -31 -30 -61 -54 -67 -54 -8 0 -11 113 -11 370 l0 371 39 52 c42 57
124 199 135 235 4 12 19 36 34 54 l27 32 3 -475 c1 -261 0 -479 -2 -485z
m2219 934 c0 -27 15 -34 22 -10 4 16 13 22 34 22 40 0 36 -18 -7 -36 -24 -10
-50 -13 -75 -9 -36 6 -37 8 -27 31 13 28 53 30 53 2z m-2620 -32 c-6 -28 -2
-39 27 -71 18 -21 33 -49 33 -62 1 -28 -15 -31 -22 -3 -7 26 -23 26 -23 -1 0
-11 -4 -17 -10 -14 -5 3 -10 17 -10 29 0 20 -6 24 -47 29 -72 9 -219 -1 -403
-29 -194 -29 -270 -48 -270 -69 0 -8 -4 -15 -10 -15 -5 0 -10 -9 -10 -20 0
-23 -28 -27 -36 -5 -9 22 -27 18 -21 -5 3 -11 1 -23 -5 -26 -5 -3 -12 3 -15
15 -7 28 -25 27 -21 -1 4 -27 -18 -35 -25 -8 -3 11 -10 20 -16 20 -7 0 -9 -9
-5 -24 3 -13 1 -27 -5 -30 -6 -4 -11 0 -11 8 0 25 -20 18 -21 -6 l0 -23 -11
23 c-15 30 -32 28 -24 -3 8 -33 -2 -32 -14 1 -6 14 -14 23 -20 19 -6 -4 -6
-15 0 -31 8 -19 6 -26 -6 -31 -10 -4 -20 1 -26 10 -14 27 -31 20 -24 -9 5 -19
3 -25 -6 -21 -7 2 -12 14 -11 26 2 11 -3 21 -9 21 -7 0 -54 -23 -105 -52 -85
-47 -187 -134 -236 -202 -13 -17 -15 -15 -35 28 -32 67 -28 87 25 146 59 66
164 136 295 198 148 70 216 92 483 152 68 15 254 38 400 50 77 6 149 13 160
14 11 2 37 4 58 5 38 1 38 1 32 -33z m2835 -1 c35 -18 36 -25 14 -89 -16 -45
-17 -47 -48 -40 -17 3 -32 8 -34 9 -7 6 21 135 30 135 5 0 22 -7 38 -15z m100
5 c0 -5 -7 -7 -15 -4 -8 4 -15 8 -15 10 0 2 7 4 15 4 8 0 15 -4 15 -10z m65
-10 c3 -5 4 -14 0 -20 -8 -13 -35 -1 -35 16 0 16 26 19 35 4z m83 0 c17 0 15
-25 -3 -40 -22 -18 -55 -3 -55 27 0 21 3 24 23 19 12 -3 28 -6 35 -6z m-330
-57 c-8 -52 -27 -82 -52 -83 -10 0 1 96 15 122 5 10 18 18 28 18 16 0 17 -5 9
-57z m389 23 c-4 -9 -14 -16 -22 -16 -9 0 -14 3 -12 8 2 4 7 16 11 26 5 14 10
16 18 8 6 -6 8 -18 5 -26z m-2983 -23 c27 -48 28 -65 1 -43 -22 18 -43 62 -38
78 7 18 9 16 37 -35z m3056 41 c0 -16 -23 -44 -35 -44 -16 0 -18 9 -9 34 6 15
44 24 44 10z m-282 -85 c-21 -49 -38 -63 -68 -54 -15 5 -15 10 4 69 l21 63 31
-15 32 -15 -20 -48z m342 67 c0 -22 -29 -41 -42 -28 -8 8 -8 15 2 27 16 19 40
20 40 1z m951 2 c9 -7 23 -26 33 -41 13 -21 23 -27 39 -23 27 7 127 -52 127
-76 0 -27 28 -48 58 -42 32 6 97 -30 86 -48 -5 -8 -13 -4 -25 11 -18 22 -33
14 -23 -13 8 -21 39 -29 62 -15 15 10 26 7 60 -16 23 -15 39 -32 35 -38 -4 -6
-11 -4 -18 6 -16 23 -25 21 -25 -3 0 -26 22 -35 50 -20 31 16 57 3 70 -34 11
-35 41 -51 58 -34 7 7 26 1 56 -17 54 -31 61 -41 41 -49 -9 -3 -18 1 -21 9 -8
19 -24 20 -24 1 0 -27 27 -39 60 -27 27 9 36 7 71 -16 22 -14 37 -28 34 -31
-3 -3 -13 2 -23 11 -28 25 -34 20 -17 -13 17 -32 26 -36 55 -20 15 8 30 3 71
-22 30 -18 47 -34 39 -36 -7 -3 -19 3 -25 12 -17 23 -27 20 -23 -6 3 -20 8
-23 50 -21 44 1 47 -1 50 -25 3 -24 7 -27 43 -27 32 0 39 -3 37 -17 -5 -29 17
-58 43 -58 13 0 27 5 30 10 7 11 26 3 60 -25 19 -16 19 -16 -8 -10 -21 4 -28
2 -25 -6 8 -24 37 -35 58 -21 17 10 26 8 65 -17 31 -19 42 -32 34 -37 -7 -4
-20 2 -31 16 -23 28 -35 19 -20 -15 12 -25 31 -30 67 -16 26 11 54 -7 47 -31
-4 -18 -2 -19 50 -23 33 -2 58 -22 58 -45 0 -26 24 -42 54 -34 20 5 37 -1 69
-22 26 -17 37 -29 28 -32 -8 -3 -22 6 -32 19 -18 23 -19 24 -19 3 0 -31 24
-47 62 -40 27 4 44 -1 88 -30 49 -32 48 -40 -2 -19 -26 10 -22 -12 3 -26 12
-6 34 -8 50 -5 24 5 28 2 31 -22 3 -25 6 -27 41 -24 31 2 37 0 37 -16 0 -27
24 -44 57 -40 22 2 30 -3 41 -24 7 -16 18 -28 25 -29 7 -1 21 -2 31 -3 13 -1
22 -12 28 -32 8 -32 34 -62 44 -51 3 3 -2 17 -11 31 -19 29 -10 34 22 11 13
-9 20 -22 16 -31 -4 -11 2 -14 23 -12 18 1 46 -9 73 -28 l45 -29 -87 -3 c-61
-2 -95 2 -115 12 -15 8 -216 130 -447 272 -231 141 -440 269 -465 284 -25 15
-245 150 -490 300 -245 150 -494 303 -555 340 -60 37 -147 90 -192 118 -46 29
-90 52 -99 52 -8 0 -297 -120 -642 -266 -345 -147 -699 -297 -787 -334 -88
-37 -457 -193 -820 -347 -363 -154 -668 -283 -678 -286 -10 -4 -51 -4 -90 0
l-72 6 54 24 c29 13 62 21 72 18 13 -4 19 -2 19 8 0 15 101 57 139 57 11 0 21
4 21 10 0 10 41 30 119 56 25 8 68 26 95 40 28 13 65 24 83 24 18 0 33 4 33
10 0 15 62 43 100 44 20 1 34 6 33 13 -3 12 66 43 97 43 11 0 20 4 20 8 0 8
97 52 114 52 4 0 37 14 73 30 35 17 70 30 77 30 7 0 40 13 72 30 38 19 67 27
82 23 16 -4 29 2 46 20 14 15 37 29 53 32 15 3 46 15 68 26 40 19 135 59 250
104 33 13 132 53 220 89 88 36 165 66 170 66 6 0 37 14 70 30 33 17 68 30 79
30 11 0 27 6 35 13 9 8 32 20 51 27 19 7 54 22 78 32 23 10 86 36 140 57 53
22 219 89 367 150 149 60 277 110 286 111 8 0 22 -6 30 -12z m-1545 -35 c-14
-83 -18 -90 -43 -102 -14 -6 -27 -10 -28 -9 -9 9 20 125 33 136 31 24 45 15
38 -25z m684 29 c0 -22 -27 -40 -51 -35 -20 4 -25 10 -22 24 4 14 14 19 39 19
19 0 34 -4 34 -8z m50 -22 c-9 -17 -40 -29 -40 -16 0 18 15 36 31 36 17 0 18
-3 9 -20z m65 10 c3 -5 2 -10 -4 -10 -5 0 -16 -3 -25 -6 -11 -4 -16 -1 -16 10
0 18 35 22 45 6z m-3350 -50 c33 -53 32 -58 -5 -17 -27 31 -38 57 -25 57 3 0
16 -18 30 -40z m2460 -46 c-3 -19 -16 -40 -28 -49 -39 -27 -44 -20 -33 50 8
56 12 65 35 73 23 8 26 6 29 -16 2 -14 1 -40 -3 -58z m413 9 c-27 -62 -45 -74
-77 -54 -11 7 -11 13 3 32 9 13 21 41 27 62 l10 37 29 -15 29 -15 -21 -47z
m244 31 c83 -7 91 -16 29 -35 -33 -10 -43 -8 -89 15 -51 26 -68 42 -34 32 9
-2 52 -8 94 -12z m-3369 0 c9 -3 13 -13 10 -25 -7 -24 -19 -24 -33 -1 -8 12
-13 13 -16 5 -8 -18 -24 -16 -24 1 0 21 33 32 63 20z m57 -25 c0 -10 -4 -19
-9 -19 -10 0 -21 36 -14 44 10 10 23 -5 23 -25z m2580 21 c0 -5 -5 -32 -11
-60 -8 -40 -17 -53 -39 -65 -16 -8 -31 -15 -34 -15 -3 0 -4 28 -2 62 3 58 5
63 32 75 35 15 54 16 54 3z m550 0 c15 -8 17 -16 10 -37 -15 -50 -22 -63 -36
-63 -8 0 -14 -7 -14 -15 0 -12 -4 -14 -19 -5 -19 10 -19 12 7 70 15 33 28 59
30 60 2 0 12 -4 22 -10z m-3272 -17 c-4 -22 -22 -20 -26 1 -2 10 3 16 13 16
10 0 15 -7 13 -17z m182 -9 c0 -8 -4 -12 -10 -9 -5 3 -10 13 -10 21 0 8 5 12
10 9 6 -3 10 -13 10 -21z m-230 1 c0 -8 -7 -15 -15 -15 -8 0 -15 7 -15 15 0 8
7 15 15 15 8 0 15 -7 15 -15z m4502 -91 c95 -59 193 -119 218 -134 25 -15 295
-180 600 -367 305 -187 702 -429 882 -539 180 -109 327 -202 328 -206 0 -4
-28 -5 -62 -2 -57 6 -78 15 -227 106 -90 54 -170 105 -178 113 -8 8 -19 15
-25 15 -5 0 -76 40 -157 88 -331 201 -568 345 -601 366 -19 13 -136 84 -260
158 -124 74 -330 199 -459 276 -129 78 -240 142 -247 142 -13 0 -198 -78 -874
-370 -206 -89 -532 -229 -725 -312 -192 -82 -368 -158 -390 -168 -22 -9 -150
-65 -285 -123 -135 -58 -271 -117 -303 -131 -51 -23 -70 -26 -170 -25 l-112 1
50 23 c28 13 214 93 415 178 201 85 680 289 1065 452 385 163 801 340 925 392
124 53 266 113 315 134 50 21 93 38 97 39 4 0 85 -48 180 -106z m-4642 81 c0
-8 -7 -15 -15 -15 -8 0 -15 7 -15 15 0 8 7 15 15 15 8 0 15 -7 15 -15z m50 -6
c0 -5 -4 -9 -10 -9 -5 0 -10 7 -10 16 0 8 5 12 10 9 6 -3 10 -10 10 -16z m40
11 c0 -5 -4 -10 -10 -10 -5 0 -10 5 -10 10 0 6 5 10 10 10 6 0 10 -4 10 -10z
m3443 -30 c-5 -20 -39 -50 -56 -50 -8 0 -4 19 14 68 7 19 12 21 28 13 13 -7
17 -18 14 -31z m-3588 19 c10 -15 -1 -23 -20 -15 -9 3 -13 10 -10 16 8 13 22
13 30 -1z m2857 -44 c-3 -46 -8 -59 -28 -72 -14 -9 -27 -13 -30 -10 -3 3 -2
32 2 65 6 59 11 66 49 71 6 1 9 -21 7 -54z m769 12 c-13 -13 -26 -3 -16 12 3
6 11 8 17 5 6 -4 6 -10 -1 -17z m-850 -9 c4 -73 -8 -98 -57 -120 -25 -11 -48
-18 -50 -15 -3 2 -1 30 2 62 7 55 8 58 48 75 53 24 56 24 57 -2z m-2941 3 c0
-9 -24 -21 -41 -21 -5 0 -9 5 -9 11 0 5 4 8 9 4 5 -3 12 -1 16 5 8 12 25 13
25 1z m399 -5 c7 -8 46 -16 109 -20 100 -7 207 -30 230 -48 9 -8 12 -104 12
-417 l0 -407 -42 -40 c-92 -85 -58 -78 -371 -85 -155 -4 -318 -12 -362 -18
-304 -43 -482 -84 -620 -142 -38 -16 -75 -29 -82 -29 -10 0 -13 76 -13 363 l0
363 29 45 c85 132 240 235 481 317 204 70 341 102 520 121 41 5 80 9 86 10 6
0 17 -5 23 -13z m-469 -17 c0 -5 -4 -9 -10 -9 -5 0 -10 7 -10 16 0 8 5 12 10
9 6 -3 10 -10 10 -16z m3558 5 c12 -8 22 -24 22 -35 0 -10 5 -19 10 -19 6 0
10 7 10 15 0 14 4 14 31 0 17 -9 29 -18 27 -20 -2 -2 -114 -50 -248 -107
l-245 -103 -158 3 c-87 2 -167 6 -178 10 -20 8 5 20 134 68 14 5 17 0 17 -30
0 -49 18 -46 26 4 4 23 14 45 24 50 23 12 373 149 425 166 54 17 76 17 103 -2z
m-672 -30 c-3 -9 -6 -32 -6 -52 0 -46 -8 -59 -41 -67 l-26 -6 8 56 c4 31 9 58
11 59 10 9 44 25 52 26 4 0 5 -7 2 -16z m1876 -49 c4 -66 22 -78 26 -17 2 23
5 42 7 42 3 0 84 -48 182 -107 123 -75 171 -109 156 -111 -12 -2 -188 13 -391
32 -204 20 -379 36 -388 36 -10 0 -14 3 -11 7 11 10 390 173 404 173 8 0 13
-20 15 -55z m-1977 -81 c-27 -41 -37 -29 -30 34 4 34 14 62 24 70 14 12 16 8
19 -33 2 -30 -2 -55 -13 -71z m-50 34 c-4 -35 -14 -59 -27 -70 -32 -29 -39
-22 -32 32 4 32 3 50 -4 50 -5 0 -13 -21 -17 -46 -7 -46 -33 -84 -60 -84 -11
0 -13 11 -8 53 3 28 8 55 12 59 7 7 121 56 134 57 5 1 6 -23 2 -51z m-3140
-18 c3 -5 3 -15 -1 -21 -6 -11 -23 6 -24 24 0 10 18 9 25 -3z m2971 -37 c-3
-21 -6 -46 -6 -56 0 -12 -16 -25 -46 -38 -25 -12 -47 -19 -48 -17 -1 1 0 27 2
56 4 52 5 55 46 73 56 25 60 24 52 -18z m-3006 6 c0 -5 -4 -9 -10 -9 -5 0 -10
7 -10 16 0 8 5 12 10 9 6 -3 10 -10 10 -16z m-30 -21 c0 -5 -4 -8 -10 -8 -5 0
-10 10 -10 23 0 18 2 19 10 7 5 -8 10 -18 10 -22z m-40 -13 c0 -30 -15 -33
-23 -5 -4 16 1 23 21 29 1 1 2 -10 2 -24z m2955 -31 c-1 -32 -8 -52 -24 -67
l-22 -22 2 60 c1 33 7 63 13 67 25 17 33 7 31 -38z m2335 -25 l435 -41 68 -40
67 -40 0 -84 0 -83 -97 6 c-54 3 -341 19 -638 37 l-540 31 1 45 c0 25 1 63 2
86 l2 40 103 46 c69 31 112 45 132 42 17 -2 226 -22 465 -45z m-5327 26 c9
-23 -11 -28 -23 -5 -8 16 -8 20 4 20 7 0 16 -7 19 -15z m2927 -29 c0 -43 -18
-76 -41 -76 -13 0 -8 103 6 112 24 18 35 7 35 -36z m-74 -70 c-3 -12 -19 -27
-36 -33 l-32 -12 7 52 c9 62 11 66 39 76 19 8 21 5 24 -27 2 -19 1 -45 -2 -56z
m-2886 56 c0 -15 -2 -15 -10 -2 -13 20 -13 33 0 25 6 -3 10 -14 10 -23z m3515
-3 c77 -6 141 -12 143 -13 2 -3 -868 -366 -1083 -451 l-130 -52 -197 11 c-108
6 -199 14 -202 17 -3 2 40 22 95 43 82 31 102 36 115 25 19 -15 314 -27 314
-12 0 6 -55 12 -138 15 -76 2 -144 8 -151 12 -9 6 72 42 229 103 l242 93 176
-5 c101 -3 183 -1 191 4 9 6 15 31 16 75 1 36 5 69 9 73 17 18 192 81 211 77
11 -3 83 -9 160 -15z m-3545 -27 c0 -7 -4 -10 -10 -7 -5 3 -10 16 -10 28 0 18
2 19 10 7 5 -8 10 -21 10 -28z m2840 17 c0 -5 -5 -30 -11 -55 -10 -37 -17 -47
-47 -59 -19 -8 -36 -15 -39 -15 -5 0 -1 79 5 98 5 13 56 40 80 41 6 1 12 -4
12 -10z m-2875 -26 c10 -13 10 -21 1 -35 -17 -28 -26 -22 -26 17 0 39 7 43 25
18z m2751 -89 c-6 -22 -42 -51 -52 -41 -10 10 18 103 34 115 15 12 17 10 20
-19 2 -17 1 -42 -2 -55z m1949 15 c-2 -39 -6 -73 -9 -76 -7 -7 -296 9 -296 16
0 7 278 129 297 130 8 1 10 -20 8 -70z m-4745 25 c0 -8 -5 -12 -10 -9 -6 4 -8
11 -5 16 9 14 15 11 15 -7z m2729 -30 c-10 -54 -14 -61 -41 -75 -19 -10 -20
-9 -13 33 12 76 13 79 56 87 4 0 3 -20 -2 -45z m493 -17 l4 -57 -150 0 c-82 0
-147 2 -145 4 6 6 283 114 286 112 1 -1 4 -28 5 -59z m-567 -14 c-4 -32 -14
-54 -28 -65 -33 -26 -38 -22 -36 33 2 43 6 52 28 64 40 22 44 19 36 -32z
m-2677 12 c-3 -3 -9 2 -12 12 -6 14 -5 15 5 6 7 -7 10 -15 7 -18z m6223 -66
c65 -39 119 -74 119 -78 0 -3 -51 -3 -112 1 -62 3 -121 7 -130 7 -15 1 -18 11
-18 71 0 43 4 70 11 70 6 0 64 -32 130 -71z m-3631 17 c0 -35 -5 -48 -22 -60
-12 -9 -25 -16 -28 -16 -3 0 -3 24 -2 54 4 53 8 59 45 65 4 0 7 -19 7 -43z
m-70 -21 c0 -25 -8 -44 -25 -60 -35 -36 -44 -31 -42 25 2 38 6 51 22 59 36 17
45 13 45 -24z m1943 9 c15 -5 17 -20 17 -102 l0 -95 -107 6 c-60 4 -166 10
-236 13 -70 4 -124 10 -120 15 16 15 408 178 418 174 6 -3 18 -8 28 -11z
m-2033 -59 c-4 -25 -9 -46 -11 -48 -10 -7 -61 -27 -69 -27 -6 0 -10 20 -10 45
0 44 2 47 42 65 23 10 45 17 49 15 3 -3 3 -25 -1 -50z m2610 24 c206 -12 376
-22 378 -24 1 -1 3 -20 4 -41 0 -21 3 -43 6 -48 8 -15 22 18 22 54 l0 35 187
-12 c104 -6 212 -12 241 -12 l53 -1 -5 -63 c-3 -34 -1 -68 3 -75 12 -19 17 -1
20 68 3 57 8 73 19 66 4 -2 75 -7 157 -11 277 -13 270 -11 437 -112 81 -48
147 -91 148 -95 0 -3 -26 -4 -57 -2 -59 5 -581 32 -1143 60 -173 8 -360 18
-415 22 l-100 7 -3 88 c-4 112 -22 114 -22 3 0 -47 -3 -87 -7 -89 -6 -2 -385
16 -455 22 -5 1 -8 44 -8 97 l0 97 83 -6 c45 -3 251 -16 457 -28z m1684 -5
c20 -8 21 -24 2 -24 -8 0 -16 7 -20 15 -6 17 -4 18 18 9z m-4404 -41 c0 -46
-11 -72 -32 -79 -42 -13 -56 74 -15 94 36 17 47 14 47 -15z m-102 -104 c-28
-18 -38 -9 -38 36 0 38 4 47 23 54 21 8 22 5 25 -37 2 -29 -1 -48 -10 -53z
m-58 28 c0 -46 -13 -67 -42 -67 -15 0 -18 8 -18 43 0 36 4 46 23 55 35 17 37
15 37 -31z m-80 -37 c0 -34 -4 -42 -31 -55 -17 -9 -32 -15 -34 -13 -1 2 -5 22
-8 44 -4 36 -2 43 17 52 43 21 56 15 56 -28z m-92 -37 c-3 -44 -5 -48 -30 -51
-24 -3 -28 0 -28 22 0 13 -2 31 -5 38 -4 9 5 18 22 25 43 17 44 16 41 -34z
m2552 12 c272 -13 532 -27 578 -31 l82 -6 0 -54 c0 -66 20 -73 21 -6 1 26 1
51 0 56 -1 5 28 6 66 3 37 -4 148 -10 246 -13 l177 -7 0 -38 c0 -22 5 -39 10
-39 6 0 10 10 10 23 1 51 -3 50 274 37 l256 -13 0 -41 c0 -23 5 -48 10 -56 11
-18 11 -18 15 38 1 23 5 45 8 49 4 3 111 1 238 -6 l232 -11 179 -108 c166
-100 176 -107 144 -110 -31 -3 -439 18 -1591 83 -242 13 -503 27 -580 31 -77
3 -146 8 -153 10 -10 3 -13 19 -10 57 1 29 -1 53 -7 55 -6 1 -11 -22 -13 -53
-3 -52 -4 -55 -30 -55 -53 0 -458 21 -491 26 l-34 5 6 90 c3 49 2 89 -2 89
-12 0 -21 -53 -21 -121 0 -69 22 -64 -207 -49 -81 5 -201 12 -266 16 -66 3
-115 10 -110 14 4 5 91 44 193 88 157 67 191 78 230 75 25 -2 268 -14 540 -28z
m-2632 -29 c6 -30 -11 -37 -74 -30 l-59 7 50 23 c57 26 78 26 83 0z m5237 -56
c3 -5 1 -10 -4 -10 -6 0 -11 5 -11 10 0 6 2 10 4 10 3 0 8 -4 11 -10z m-5273
-50 c-2 -33 -2 -34 13 -16 8 11 15 26 15 33 0 8 13 13 35 13 38 0 41 -6 23
-45 -10 -23 -16 -25 -80 -25 -67 0 -70 1 -111 40 l-42 40 75 -2 75 -3 -3 -35z
m186 7 c5 -25 -26 -57 -55 -57 -25 0 -29 14 -13 55 8 21 16 26 37 23 17 -2 29
-10 31 -21z m-336 -14 c32 -30 39 -56 8 -28 -11 10 -23 15 -27 12 -3 -4 -12 1
-19 11 -7 9 -16 14 -19 10 -8 -8 -3 -22 22 -58 l17 -25 -23 20 c-33 28 -42 57
-22 72 23 18 32 16 63 -14z m418 11 c0 -30 -21 -54 -46 -54 -22 0 -24 3 -18
28 10 39 12 42 40 42 15 0 24 -6 24 -16z m74 -11 c-8 -30 -26 -53 -43 -53 -18
0 -21 17 -10 49 8 23 17 31 35 31 22 0 24 -3 18 -27z m76 0 c0 -20 -28 -53
-47 -53 -14 0 -17 27 -7 54 8 22 54 21 54 -1z m70 1 c0 -27 -20 -54 -41 -54
-16 0 -18 5 -13 28 9 38 13 42 35 42 11 0 19 -7 19 -16z m60 -2 c0 -21 -18
-42 -37 -42 -7 0 -10 7 -8 15 3 8 7 22 10 30 6 21 35 19 35 -3z m69 4 c-2 -2
-14 -9 -26 -15 -19 -10 -23 -9 -23 4 0 10 9 15 27 15 14 0 24 -2 22 -4z m-837
-60 l28 -35 -22 -15 c-21 -15 -24 -14 -52 14 -39 38 -25 53 14 15 23 -22 30
-25 30 -12 0 8 -4 19 -10 22 -14 9 -32 45 -23 45 4 0 20 -16 35 -34z m2041 27
l67 -6 0 -48 c0 -27 5 -49 10 -49 6 0 10 20 10 44 0 25 3 47 8 49 4 3 72 1
152 -3 176 -11 274 -16 635 -35 154 -8 319 -17 368 -21 l87 -6 -2 -47 c-2 -25
2 -47 7 -49 6 -1 11 17 13 40 2 24 6 46 10 50 6 6 295 -9 1671 -87 l443 -25
142 -84 c209 -125 206 -117 44 -114 -75 2 -140 6 -144 11 -4 4 -3 30 2 58 6
29 7 52 2 55 -15 9 -19 -1 -25 -61 l-6 -58 -211 6 c-116 3 -597 16 -1068 28
l-858 23 0 33 c0 17 -4 34 -9 37 -10 7 -21 -17 -21 -45 0 -25 15 -25 -1085 6
-484 14 -922 25 -974 25 -52 0 -91 3 -87 7 4 4 145 67 314 140 337 145 328
143 505 126z m-1479 -62 l39 -6 -84 -34 c-46 -19 -145 -66 -219 -105 -74 -39
-141 -72 -147 -74 -10 -3 -13 26 -13 119 l0 122 193 -8 c105 -4 210 -10 231
-14z m-619 -21 c20 -21 24 -30 14 -30 -9 0 -28 14 -44 30 -20 21 -24 30 -14
30 9 0 28 -13 44 -30z m165 -102 l0 -123 -94 -52 c-52 -29 -97 -53 -100 -53
-3 0 -6 48 -6 108 l1 107 91 68 c51 37 95 67 100 67 4 0 8 -55 8 -122z m-201
76 c32 -37 20 -40 -14 -4 -16 17 -24 30 -19 30 6 0 21 -12 33 -26z m-30 -21
c12 -14 19 -28 16 -31 -6 -6 -55 38 -55 50 0 16 19 7 39 -19z m-59 -74 c0 -13
-114 -11 -128 3 -24 24 -13 38 27 38 22 0 43 5 47 12 5 8 15 2 31 -16 12 -15
23 -31 23 -37z m-440 20 c0 -18 -2 -19 -15 -5 -8 8 -15 17 -15 20 0 3 7 6 15
6 9 0 15 -9 15 -21z m58 -1 c2 -12 -2 -15 -17 -11 -29 7 -37 35 -9 31 13 -2
24 -11 26 -20z m72 1 c0 -15 -4 -19 -16 -15 -9 3 -20 6 -25 6 -5 0 -9 7 -9 15
0 9 9 15 25 15 19 0 25 -5 25 -21z m80 1 c0 -25 -21 -26 -51 0 l-24 19 38 1
c30 0 37 -3 37 -20z m72 -5 c-3 -21 -7 -23 -23 -14 -27 14 -24 39 5 39 19 0
22 -4 18 -25z m-385 0 c3 -9 3 -19 -1 -22 -9 -9 -56 18 -50 29 9 14 44 9 51
-7z m63 -5 c0 -23 -10 -26 -28 -8 -18 18 -15 28 8 28 13 0 20 -7 20 -20z
m-132 -2 c-5 -15 -78 -24 -78 -10 0 16 13 22 48 22 22 0 32 -4 30 -12z m-108
-6 c0 -4 -9 -8 -20 -8 -11 0 -20 4 -20 8 0 4 9 8 20 8 11 0 20 -4 20 -8z m-90
-16 c0 -14 -55 -30 -71 -20 -18 11 -8 23 24 27 17 2 35 5 40 5 4 1 7 -4 7 -12z
m37 8 c-3 -3 -12 -4 -19 -1 -8 3 -5 6 6 6 11 1 17 -2 13 -5z m-137 -29 c0 -11
-12 -15 -45 -15 -25 0 -45 -5 -45 -10 0 -6 -6 -5 -14 2 -18 17 -14 20 31 28
60 12 73 11 73 -5z m446 -14 c13 -12 209 -31 324 -31 52 0 119 -3 148 -6 l52
-7 0 -68 0 -68 -55 -31 c-30 -17 -55 -36 -55 -41 0 -23 34 -91 51 -100 11 -5
19 -17 19 -25 0 -9 18 -37 40 -63 l40 -47 0 -101 c0 -97 -1 -100 -25 -111
l-25 -12 0 -224 0 -224 -36 -7 c-20 -3 -113 -3 -208 0 -94 4 -405 7 -691 8
-286 1 -526 6 -532 10 -10 6 -13 110 -13 462 l0 454 33 24 c46 35 79 50 200
91 165 55 407 110 532 120 91 7 192 5 201 -3z m-582 -17 c5 -13 2 -15 -16 -10
-13 3 -27 6 -31 6 -5 0 -5 5 -2 10 10 16 42 12 49 -6z m-67 -14 c1 -16 -3 -18
-28 -13 -18 3 -29 1 -29 -6 0 -6 -13 -11 -30 -11 -21 0 -30 -5 -30 -16 0 -13
-7 -15 -30 -10 -22 4 -30 2 -30 -9 0 -8 -4 -15 -10 -15 -5 0 -10 4 -10 10 0 5
-7 7 -15 4 -31 -12 -14 12 18 25 30 12 175 59 187 60 3 1 6 -8 7 -19z m1706
-15 l18 -25 -261 -130 -261 -131 3 33 c3 31 10 36 113 89 61 30 164 86 230
122 66 37 125 67 130 67 6 -1 18 -12 28 -25z m1767 -55 c602 -17 1347 -37
1655 -45 308 -8 640 -17 738 -21 178 -6 178 -6 149 -24 -17 -10 -34 -26 -39
-35 -7 -12 -21 -15 -59 -13 l-49 4 33 14 c17 8 32 18 32 22 0 17 -40 7 -68
-17 -34 -28 -94 -37 -72 -10 7 8 21 15 31 15 10 0 21 5 24 10 13 22 -53 9 -79
-15 -29 -26 -51 -31 -76 -15 -12 8 -9 12 18 22 17 7 32 16 32 20 0 17 -40 7
-68 -17 -19 -16 -42 -25 -63 -25 -32 1 -33 1 -15 15 11 8 28 15 38 15 10 0 18
5 18 11 0 17 -60 2 -85 -21 -21 -20 -75 -28 -75 -11 0 4 17 15 38 24 l37 15
-32 1 c-20 1 -42 -8 -61 -24 -30 -25 -82 -34 -82 -15 0 6 7 11 15 11 8 1 20 3
25 4 6 1 16 3 23 4 8 1 6 5 -4 11 -21 12 -77 -3 -93 -25 -9 -13 -21 -15 -49
-10 -37 7 -42 25 -6 25 10 0 19 5 19 10 0 17 -46 11 -73 -10 -15 -12 -40 -20
-63 -20 -40 0 -42 9 -3 14 13 1 24 6 24 12 0 14 -57 6 -75 -11 -19 -17 -90
-20 -90 -4 0 6 14 16 30 22 34 13 40 27 10 27 -10 0 -35 -13 -53 -30 -28 -24
-40 -29 -66 -24 -39 8 -39 19 0 33 17 6 28 15 25 20 -10 15 -68 -9 -73 -30 -4
-15 -15 -19 -50 -19 -50 0 -57 23 -10 28 37 5 34 22 -3 22 -20 0 -39 -9 -54
-25 -17 -18 -34 -25 -60 -25 -46 0 -48 23 -3 41 30 11 30 13 9 16 -27 5 -72
-21 -72 -42 0 -11 -11 -15 -39 -15 -49 0 -62 16 -21 25 16 4 30 11 30 17 0 13
-60 0 -81 -18 -18 -16 -99 -19 -99 -4 0 6 17 10 38 10 33 1 35 2 19 14 -22 17
-65 9 -78 -15 -7 -13 -21 -19 -44 -19 -45 0 -45 17 0 26 48 9 46 28 -2 21 -21
-4 -46 -16 -55 -27 -16 -20 -23 -20 -130 -14 -62 4 -115 8 -117 10 -2 2 8 9
23 15 14 7 26 16 26 21 0 17 -32 7 -56 -17 -20 -20 -35 -25 -74 -25 -39 0 -48
3 -44 14 3 8 19 18 36 21 20 5 26 10 18 15 -22 13 -65 -5 -68 -29 -3 -21 -6
-22 -75 -15 -40 4 -74 9 -77 11 -9 8 25 23 53 23 15 0 27 5 27 10 0 13 -56 13
-81 0 -10 -6 -19 -17 -19 -25 0 -12 -15 -15 -65 -15 -66 0 -87 14 -38 26 15 4
34 2 45 -5 17 -11 19 -10 16 6 -2 13 -14 19 -44 21 -35 3 -45 -1 -62 -22 -25
-32 -37 -32 -65 -2 -32 36 -96 39 -124 6 -18 -21 -39 -28 -28 -10 4 6 -9 17
-28 25 -44 18 -104 9 -119 -18 -10 -20 -11 -20 -29 4 -15 20 -26 24 -64 22
-28 -1 -54 -8 -66 -19 -18 -16 -20 -16 -38 7 -26 33 -97 34 -119 1 -19 -29
-46 -28 -60 2 -6 13 -22 26 -36 30 -30 7 -74 -8 -82 -29 -9 -23 -29 -18 -42
10 -8 17 -20 25 -37 25 -31 0 -81 -24 -88 -42 -3 -9 -12 -3 -26 15 -31 38 -91
39 -118 1 -21 -29 -43 -25 -58 9 -15 34 -68 35 -100 3 -32 -32 -61 -33 -76 -3
-7 12 -16 25 -22 28 -12 8 -77 -9 -97 -25 -32 -27 -39 -27 -55 4 -19 37 -52
40 -84 6 l-22 -23 -29 29 c-17 16 -34 27 -40 23 -16 -10 -12 -19 12 -30 13 -6
25 -19 27 -29 3 -19 2 -19 -20 -4 -13 8 -33 30 -43 48 l-20 33 270 -7 c148 -3
762 -20 1364 -36z m-3700 -20 c0 -3 -13 -13 -29 -23 -22 -13 -30 -14 -34 -5
-3 10 -9 8 -24 -5 -19 -16 -33 -14 -33 5 0 16 64 37 78 26 6 -6 13 -8 13 -4 1
3 3 11 4 16 1 6 3 13 4 18 1 7 21 -18 21 -28z m2264 5 c4 -11 -2 -15 -26 -15
-26 0 -29 2 -18 15 7 8 18 15 25 15 7 0 15 -7 19 -15z m174 -12 c2 -9 -10 -13
-45 -13 -45 1 -47 2 -28 16 23 17 66 15 73 -3z m180 0 c2 -9 -9 -13 -40 -13
-40 1 -42 2 -23 16 23 17 56 15 63 -3z m-585 -39 c53 -66 50 -81 -10 -44 -32
19 -67 72 -56 84 14 14 30 4 66 -40z m755 29 c2 -9 -9 -13 -37 -13 -39 0 -50
8 -34 24 11 11 66 2 71 -11z m160 0 c2 -9 -9 -13 -40 -13 -40 1 -42 2 -23 16
23 17 56 15 63 -3z m152 -9 c0 -16 -47 -19 -70 -4 -12 7 -10 11 10 18 30 11
60 4 60 -14z m-1112 -62 c17 -19 32 -36 32 -38 0 -2 -11 -4 -24 -4 -27 0 -76
51 -76 79 0 27 14 35 25 15 5 -10 25 -34 43 -52z m1297 58 c4 -6 -12 -10 -39
-10 -25 0 -46 5 -46 10 0 6 18 10 39 10 22 0 43 -4 46 -10z m155 -10 c0 -5
-18 -10 -40 -10 -22 0 -40 5 -40 10 0 6 18 10 40 10 22 0 40 -4 40 -10z m180
0 c11 -7 -2 -10 -43 -10 -36 0 -56 4 -52 10 8 13 75 13 95 0z m155 -1 c4 -6 5
-12 2 -15 -8 -8 -87 8 -81 17 7 13 72 11 79 -2z m-1865 -38 c6 -16 20 -37 31
-47 24 -22 24 -34 0 -34 -11 0 -35 19 -55 42 -27 32 -33 44 -25 55 18 21 36
15 49 -16z m4723 19 l89 0 -25 -30 c-14 -16 -27 -33 -29 -38 -1 -5 -21 -7 -43
-4 l-39 5 29 23 c24 19 26 24 12 24 -27 0 -57 -19 -57 -35 0 -11 -13 -15 -56
-15 -62 0 -71 18 -16 34 42 12 42 30 0 22 -18 -3 -43 -17 -55 -31 -17 -19 -32
-25 -64 -25 -35 0 -40 2 -30 14 7 8 26 18 42 21 16 4 29 11 29 16 0 22 -68 1
-97 -30 -15 -16 -26 -19 -62 -14 l-44 6 22 19 c13 10 29 18 37 18 8 0 14 7 14
17 0 14 13 15 128 10 70 -4 167 -7 215 -7z m195 -9 c11 -7 11 -9 -2 -14 -9 -4
-21 -18 -28 -32 -9 -21 -18 -25 -55 -25 -52 0 -59 22 -13 48 16 9 30 20 30 25
0 10 52 9 68 -2z m65 -36 c-19 -19 -44 -35 -54 -35 -48 0 8 67 58 69 l31 1
-35 -35z m297 28 c0 -15 -65 -73 -82 -73 -22 0 -23 13 -3 30 8 7 15 16 15 21
0 18 -22 8 -49 -22 -17 -18 -36 -29 -47 -27 -25 5 -29 25 -5 33 12 3 21 11 21
16 0 17 -29 9 -54 -16 -18 -18 -36 -25 -62 -25 l-36 0 29 34 28 35 123 0 c67
1 122 -2 122 -6z m-5350 -13 c0 -5 16 -28 36 -49 35 -39 35 -40 10 -37 -40 4
-95 63 -81 86 8 13 35 13 35 0z m1690 -20 c624 -17 2389 -64 3740 -100 223 -6
411 -13 418 -15 9 -3 12 -38 12 -126 l0 -121 -582 6 c-321 3 -648 8 -728 11
-80 3 -390 7 -690 10 -300 3 -588 7 -640 10 -52 3 -365 7 -695 10 -330 3 -638
8 -685 10 -47 2 -368 7 -715 10 -346 3 -642 8 -656 11 l-26 5 -6 125 c-2 68
-9 130 -14 137 -6 6 -13 21 -17 31 -8 22 -73 23 1284 -14z m3754 20 c-12 -4
-30 -20 -42 -34 -14 -19 -29 -26 -53 -26 l-34 0 35 34 c28 27 43 34 75 34 32
1 36 -1 19 -8z m90 -25 c-29 -26 -48 -34 -76 -35 -46 0 -49 14 -8 39 16 10 27
21 23 24 -3 4 18 7 47 7 l53 0 -39 -35z m76 -5 c-48 -43 -49 -44 -68 -31 -11
6 -6 14 17 30 17 13 29 27 26 32 -4 5 11 9 32 9 l37 0 -44 -40z m136 30 c8 0
-3 -16 -25 -35 -29 -27 -47 -35 -76 -35 -24 0 -35 4 -33 12 6 18 91 67 106 62
8 -2 20 -4 28 -4z m214 -9 c0 -5 -4 -21 -10 -35 -7 -20 -16 -26 -37 -26 l-28
1 30 16 c24 14 26 18 13 21 -10 2 -31 -6 -47 -17 -29 -21 -61 -28 -61 -13 0 4
9 13 20 20 21 13 27 32 10 32 -5 0 -25 -13 -43 -30 -22 -19 -46 -30 -63 -30
l-29 0 35 34 c34 33 37 34 123 35 48 1 87 -3 87 -8z m-6006 -36 c9 -13 26 -33
38 -45 l22 -20 -27 0 c-18 0 -34 10 -51 33 -15 19 -26 39 -26 45 0 21 27 13
44 -13z m-39 -38 c34 -47 44 -68 24 -49 -7 6 -20 12 -29 12 -9 0 -29 13 -44
29 -26 27 -27 30 -9 40 25 15 25 15 58 -32z m409 31 c22 -7 43 -15 46 -19 3
-4 5 -65 5 -135 l0 -129 -355 -76 c-195 -42 -358 -75 -362 -72 -14 8 -9 180 5
190 6 6 37 19 67 31 30 11 109 46 175 78 100 48 337 140 369 143 5 1 27 -4 50
-11z m-440 -82 l28 -14 -32 -17 c-19 -10 -56 -25 -84 -35 -28 -10 -68 -25 -89
-34 -35 -15 -38 -15 -44 1 -4 10 -13 24 -20 31 -23 23 -3 35 21 13 12 -12 31
-21 42 -21 16 1 15 4 -8 21 -32 23 -36 44 -11 53 11 5 26 -3 44 -24 17 -19 34
-28 43 -24 21 8 20 24 0 24 -25 0 -45 32 -31 48 8 11 17 6 42 -24 25 -29 36
-36 51 -30 18 8 18 8 -2 16 -11 4 -28 20 -37 34 -16 24 -16 26 1 35 13 8 21 5
37 -14 11 -13 33 -30 49 -39z m1576 -206 c327 -5 782 -12 1010 -15 228 -3 530
-7 670 -10 140 -3 602 -10 1025 -15 424 -5 858 -12 965 -15 107 -3 315 -5 461
-6 146 0 272 -4 279 -9 10 -6 8 -14 -9 -38 -11 -17 -21 -37 -21 -46 0 -15
-231 -16 -2682 -14 l-2683 3 -6 50 c-4 28 -10 67 -14 88 l-8 37 209 0 c115 0
477 -4 804 -10z m-1066 -95 c2 -70 1 -78 -18 -84 -12 -4 -185 -29 -385 -55
-392 -51 -381 -51 -381 5 0 39 33 55 167 85 416 90 608 130 612 128 2 -2 4
-37 5 -79z m169 -185 c112 0 137 -3 137 -14 0 -21 -92 -30 -219 -22 -58 4
-107 9 -109 11 -3 2 -2 12 2 21 4 11 13 14 29 10 12 -3 84 -6 160 -6z m930 0
c97 0 117 -3 117 -15 0 -13 -24 -15 -155 -15 -152 0 -155 0 -155 21 0 19 4 21
38 15 20 -3 90 -6 155 -6z m-235 -12 c-6 -18 -56 -29 -62 -13 -7 18 3 25 37
25 18 0 27 -5 25 -12z m502 -3 c0 -17 -45 -21 -55 -6 -4 8 4 12 48 20 4 0 7
-6 7 -14z m268 -2 c3 -10 -24 -13 -111 -13 -94 0 -116 3 -121 15 -5 14 10 15
111 13 82 -2 118 -7 121 -15z m441 1 c3 -2 0 -9 -5 -14 -7 -7 -67 -9 -155 -8
-127 3 -144 5 -147 20 -3 16 8 17 150 12 84 -3 155 -8 157 -10z m471 6 c0 -16
-44 -30 -52 -17 -4 6 -4 15 -2 19 8 12 54 10 54 -2z m328 -2 c-3 -10 -44 -14
-146 -16 -122 -2 -142 0 -142 13 0 13 22 15 146 15 112 0 145 -3 142 -12z
m237 2 c3 -5 2 -10 -4 -10 -5 0 -13 5 -16 10 -3 6 -2 10 4 10 5 0 13 -4 16
-10z m85 -4 c0 -24 -15 -26 -28 -5 -11 16 -9 19 8 19 11 0 20 -6 20 -14z m47
-5 c-2 -10 4 -29 14 -42 24 -31 24 -39 -2 -39 -11 0 -17 -4 -14 -10 4 -6 15
-8 26 -5 13 4 19 2 19 -8 0 -10 -16 -16 -57 -20 -32 -2 -61 -2 -66 2 -4 4 -9
30 -11 58 l-3 50 26 -13 c24 -12 26 -12 35 9 5 12 8 25 8 30 -1 4 5 7 14 7 11
0 15 -6 11 -19z m91 7 c-7 -20 -48 -23 -48 -4 0 11 9 16 26 16 16 0 24 -5 22
-12z m316 3 c8 -13 -30 -21 -104 -21 -86 0 -170 11 -170 21 0 12 267 12 274 0z
m94 -11 c-9 -14 -14 -16 -20 -7 -13 20 -9 27 12 27 18 0 19 -3 8 -20z m-3803
1 c-6 -5 -22 -13 -37 -16 -22 -6 -28 -4 -28 9 0 12 10 16 37 16 23 0 33 -4 28
-9z m4095 -1 c0 -5 -11 -10 -25 -10 -14 0 -25 5 -25 10 0 6 11 10 25 10 14 0
25 -4 25 -10z m300 0 c0 -6 -50 -10 -130 -10 -80 0 -130 4 -130 10 0 6 50 10
130 10 80 0 130 -4 130 -10z m85 -12 c-4 -13 -8 -37 -8 -55 0 -22 -6 -33 -19
-36 -23 -6 -23 -24 0 -30 14 -3 12 -6 -8 -14 -33 -14 -35 -3 -11 46 12 22 21
56 21 76 0 26 4 35 16 35 13 0 15 -5 9 -22z m123 -5 c2 -12 10 -27 18 -33 8
-7 14 -25 14 -39 0 -16 10 -37 25 -51 l25 -24 0 -677 c0 -440 -4 -680 -11
-684 -5 -4 -45 5 -88 20 l-79 26 -6 72 c-3 40 -12 293 -21 562 -8 270 -16 515
-18 546 -1 31 3 62 9 70 5 8 16 39 24 69 7 32 25 69 42 89 22 25 28 40 23 58
-5 21 -3 24 17 21 15 -2 24 -11 26 -25z m72 17 c-20 -13 -40 -13 -40 0 0 6 12
10 28 10 21 0 24 -2 12 -10z m295 0 c-7 -12 -163 -12 -220 -1 -30 7 -5 9 93
10 87 1 131 -3 127 -9z m213 -26 c12 -20 22 -44 22 -54 0 -10 12 -33 26 -50
l27 -31 -7 -772 c-5 -425 -10 -774 -12 -776 -4 -4 -217 58 -234 69 -8 5 -27
667 -42 1428 0 13 14 53 32 89 18 36 34 80 35 97 2 17 3 32 4 34 1 1 29 2 64
2 60 -1 63 -2 85 -36z m-5291 1 c8 -22 4 -24 -49 -18 -31 4 -48 10 -48 19 0
21 89 19 97 -1z m5591 -25 c-26 -32 -38 -37 -38 -15 0 8 -4 15 -9 15 -5 0 -14
-7 -21 -15 -10 -12 -10 -15 2 -15 8 0 23 -9 32 -19 10 -11 25 -17 33 -14 11 4
14 0 11 -13 -2 -14 -13 -20 -46 -22 -53 -4 -55 -22 -2 -22 27 0 40 -4 40 -14
0 -10 -21 -15 -77 -19 -43 -3 -81 -2 -86 2 -4 4 -9 35 -10 69 -3 57 -2 61 13
47 24 -22 43 -18 57 10 14 32 -4 46 -24 19 -14 -18 -15 -18 -30 4 -9 12 -22
22 -29 22 -8 0 -14 3 -14 8 0 4 50 6 110 4 l110 -3 -22 -29z m-5871 24 c-3 -3
-12 -4 -19 -1 -8 3 -5 6 6 6 11 1 17 -2 13 -5z m153 -3 c0 -10 -24 -21 -46
-21 -8 0 -14 7 -14 15 0 10 10 15 30 15 17 0 30 -4 30 -9z m3420 -17 c0 -14
-4 -23 -10 -19 -5 3 -10 15 -10 26 0 10 5 19 10 19 6 0 10 -12 10 -26z m2080
6 c8 -16 8 -20 -3 -20 -18 0 -39 24 -30 33 11 12 22 8 33 -13z m-4130 -1 c82
1 150 -3 150 -8 0 -4 -10 -7 -22 -5 -25 5 -59 -20 -72 -51 -8 -19 -10 -18 -19
8 -13 32 -18 33 -42 7 -12 -13 -14 -20 -6 -20 7 0 27 -10 44 -22 18 -13 40
-21 49 -20 10 2 18 0 18 -5 -1 -20 -20 -36 -47 -38 -15 -1 -38 -3 -50 -3 -45
-4 -22 -22 27 -22 43 0 50 -3 50 -20 0 -19 -7 -20 -105 -20 l-105 0 0 31 c0
17 -5 39 -11 50 -7 15 -7 24 0 33 6 8 8 22 4 32 -6 18 -5 18 13 2 11 -10 31
-19 45 -20 20 -3 23 1 21 20 -2 12 0 22 5 21 20 -3 24 2 13 16 -14 17 -40 3
-40 -21 0 -24 -18 -15 -37 17 -12 20 -24 29 -35 25 -11 -2 -18 1 -18 11 0 8 4
11 10 8 5 -3 77 -6 160 -6z m558 -4 c1 -1 -9 -14 -22 -28 -23 -25 -24 -25 -29
-6 -5 18 -8 19 -26 7 -23 -14 -27 -28 -8 -28 6 0 23 -9 36 -19 14 -10 31 -16
39 -14 10 4 13 0 10 -13 -2 -15 -13 -20 -51 -22 -60 -4 -62 -22 -1 -22 38 0
45 -3 42 -17 -3 -16 -15 -18 -93 -18 -75 0 -90 3 -93 16 -3 18 44 33 54 18 8
-14 24 -10 24 5 0 16 -54 38 -75 30 -10 -4 -13 3 -12 29 2 32 4 34 18 21 22
-20 63 -19 55 1 -3 9 1 18 9 21 17 7 10 24 -10 24 -7 0 -17 -10 -20 -21 -7
-21 -8 -21 -32 10 -13 17 -28 29 -33 26 -5 -3 -11 -1 -14 4 -5 8 222 4 232 -4z
m1190 -17 c-16 -11 -28 -26 -28 -34 0 -14 -20 -21 -20 -6 0 4 -4 13 -9 21 -8
12 -12 12 -25 2 -20 -16 -21 -31 -3 -31 8 0 22 -9 33 -21 10 -12 26 -18 37
-15 14 3 17 0 15 -17 -2 -18 -11 -23 -48 -25 -66 -5 -75 -22 -12 -22 45 0 52
-3 52 -20 0 -18 -7 -20 -85 -20 -47 0 -88 0 -92 0 -11 0 -24 48 -27 103 -2 45
6 62 17 33 3 -7 17 -16 31 -18 22 -4 26 -2 26 18 0 12 6 24 13 27 9 3 9 8 -2
18 -8 8 -15 10 -17 4 -15 -37 -24 -40 -45 -12 -11 15 -30 27 -40 27 -11 0 -18
3 -16 8 3 4 65 6 139 4 l133 -3 -27 -21z m778 5 c-14 -12 -26 -27 -26 -33 0
-19 -18 -10 -23 12 -6 22 -6 22 -27 3 -16 -14 -18 -21 -8 -24 7 -2 25 -12 40
-22 14 -11 33 -16 42 -13 9 3 16 2 16 -2 0 -18 -20 -39 -37 -40 -10 -1 -30 -2
-45 -3 -47 -2 -31 -21 18 -21 38 0 45 -3 42 -17 -3 -15 -17 -18 -88 -21 l-85
-3 -12 50 c-13 55 -4 118 13 90 5 -9 19 -18 32 -21 18 -5 22 -2 22 18 0 13 5
24 10 24 6 0 10 5 10 10 0 18 -29 10 -41 -11 -11 -21 -12 -21 -31 10 -12 19
-26 30 -34 27 -8 -3 -14 -2 -14 3 0 4 57 7 126 7 l125 -1 -25 -22z m54 17 c0
-5 -2 -10 -4 -10 -3 0 -8 5 -11 10 -3 6 -1 10 4 10 6 0 11 -4 11 -10z m101 -5
c7 5 10 1 7 -11 -2 -12 -13 -20 -31 -22 -27 -3 -32 4 -21 32 5 13 10 14 20 5
7 -6 18 -8 25 -4z m549 3 c0 -4 -9 -13 -20 -20 -11 -7 -20 -18 -20 -25 0 -21
-17 -15 -23 9 -5 18 -8 19 -21 8 -20 -15 -21 -30 -3 -30 8 0 22 -9 32 -20 12
-13 25 -18 38 -14 16 5 17 3 8 -15 -9 -16 -21 -21 -51 -21 -21 0 -42 -4 -45
-10 -4 -6 12 -10 39 -10 39 0 46 -3 46 -20 0 -18 -7 -20 -84 -20 -47 0 -87 4
-91 9 -8 15 -13 131 -4 131 4 0 9 -7 13 -15 8 -21 42 -19 50 3 3 9 9 23 12 30
3 7 -1 12 -9 12 -9 0 -19 -10 -22 -21 -7 -21 -8 -21 -32 10 -13 17 -29 29 -34
26 -5 -4 -9 -2 -9 3 0 5 52 8 115 8 63 -1 115 -4 115 -8z m35 2 c3 -5 1 -10
-4 -10 -6 0 -11 5 -11 10 0 6 2 10 4 10 3 0 8 -4 11 -10z m305 -32 c0 -14 -16
-9 -34 11 -13 15 -14 20 -4 24 13 5 38 -19 38 -35z m217 11 c-25 -31 -37 -36
-37 -14 0 8 -4 15 -9 15 -5 0 -14 -7 -21 -15 -7 -8 -8 -15 -3 -15 5 0 19 -9
32 -21 12 -11 29 -18 37 -15 11 4 14 1 12 -11 -2 -10 -12 -19 -23 -21 -47 -7
-65 -13 -65 -22 0 -5 17 -8 37 -7 29 1 38 -2 41 -15 3 -16 -6 -18 -81 -18
l-84 0 -9 43 c-12 53 -7 92 9 79 17 -14 51 -19 52 -7 0 6 4 16 8 23 16 24 -5
35 -23 12 l-18 -23 -11 22 c-7 12 -22 26 -34 30 -14 6 22 9 95 8 l117 0 -22
-28z m-4616 -11 c-17 -15 -31 -32 -31 -38 0 -5 -4 -10 -10 -10 -5 0 -10 6 -10
14 0 26 -21 29 -43 7 l-21 -21 20 0 c12 0 29 -9 40 -21 12 -13 27 -19 41 -16
23 4 29 -8 15 -29 -4 -6 -31 -15 -59 -19 -67 -9 -69 -25 -3 -25 42 0 50 -3 50
-19 0 -17 -10 -19 -92 -23 -51 -2 -98 -3 -103 -1 -15 5 -40 116 -27 121 5 1 7
13 4 25 -5 21 -4 21 14 6 10 -9 29 -20 42 -23 19 -6 22 -4 22 18 0 14 5 26 10
26 6 0 10 7 10 15 0 24 -30 17 -40 -10 -5 -14 -11 -25 -14 -25 -2 0 -14 16
-26 35 -17 27 -27 34 -41 30 -10 -4 -19 -2 -19 2 0 5 68 9 151 9 l150 -1 -30
-27z m59 22 c0 -5 -2 -10 -4 -10 -3 0 -8 5 -11 10 -3 6 -1 10 4 10 6 0 11 -4
11 -10z m580 -32 c0 -12 -13 -9 -35 8 -17 13 -18 16 -5 24 14 9 40 -11 40 -32z
m494 26 c9 -24 0 -28 -23 -12 -12 8 -18 18 -14 21 12 12 31 7 37 -9z m551 7
l110 -2 -27 -24 c-16 -13 -28 -29 -28 -35 0 -5 -4 -10 -10 -10 -5 0 -10 9 -10
20 0 23 -8 25 -32 6 -21 -16 -24 -30 -4 -23 8 3 24 -5 37 -19 14 -15 29 -22
41 -18 21 6 26 -20 6 -33 -13 -8 -17 -9 -70 -12 -50 -2 -29 -21 23 -21 43 0
50 -3 47 -17 -3 -15 -17 -18 -99 -21 l-96 -3 -8 43 c-10 53 -12 108 -4 108 4
0 12 -7 19 -15 7 -8 23 -15 37 -15 20 0 23 4 18 20 -4 14 -2 20 9 20 10 0 13
6 10 15 -9 21 -32 19 -39 -5 -8 -27 -19 -25 -39 5 -9 14 -25 25 -36 25 -11 0
-20 5 -20 10 0 6 12 9 28 6 15 -2 77 -5 137 -5z m625 -10 c12 -23 13 -31 3
-31 -17 1 -45 29 -38 39 10 17 23 13 35 -8z m320 9 c0 -5 -2 -10 -4 -10 -3 0
-8 5 -11 10 -3 6 -1 10 4 10 6 0 11 -4 11 -10z m477 -5 c3 -9 3 -19 -1 -22 -7
-7 -36 16 -36 28 0 15 30 10 37 -6z m700 0 c3 -9 3 -19 -1 -22 -7 -7 -36 16
-36 28 0 15 30 10 37 -6z m-4529 -12 c2 -8 -5 -13 -17 -13 -12 0 -21 6 -21 16
0 18 31 15 38 -3z m90 -1 c2 -7 -3 -12 -12 -12 -9 0 -16 7 -16 16 0 17 22 14
28 -4z m341 -4 c5 -13 5 -24 1 -26 -12 -5 -50 30 -44 40 10 16 35 8 43 -14z
m-489 8 c0 -3 -4 -8 -10 -11 -5 -3 -10 -1 -10 4 0 6 5 11 10 11 6 0 10 -2 10
-4z m100 -5 c0 -6 -4 -13 -10 -16 -5 -3 -10 1 -10 9 0 9 5 16 10 16 6 0 10 -4
10 -9z m1207 -29 c1 -20 3 -484 5 -1030 2 -823 1 -991 -10 -987 -8 3 -18 5
-23 5 -10 0 -13 2008 -3 2034 11 29 29 16 31 -22z m536 9 c-2 -12 1 -31 7 -41
11 -21 -4 -30 -51 -30 l-30 0 28 50 c28 51 50 61 46 21z m443 -9 c-10 -10 -29
15 -21 28 6 9 10 8 17 -4 6 -10 7 -20 4 -24z m1281 23 c69 1 71 -1 69 -86 -1
-24 -3 -130 -4 -235 l-2 -191 -82 -8 c-46 -4 -96 -8 -113 -9 l-30 -1 -5 165
c-3 91 -9 170 -13 177 -4 7 10 52 35 107 38 84 45 94 63 88 11 -4 48 -7 82 -7z
m603 5 c0 -5 -5 -10 -11 -10 -5 0 -7 5 -4 10 3 6 8 10 11 10 2 0 4 -4 4 -10z
m318 -42 l-3 -53 -58 -5 c-75 -7 -70 -26 6 -22 l57 4 -2 -264 -3 -263 -66 -3
-66 -3 -6 107 c-4 59 -7 158 -7 221 l0 113 40 0 c23 0 40 5 40 11 0 7 -15 10
-40 7 -39 -3 -39 -3 -45 37 -16 129 -15 133 55 141 33 4 63 11 66 15 3 5 12 9
20 9 12 0 14 -11 12 -52z m-4228 0 c0 -12 -13 -9 -35 8 -17 13 -18 16 -5 24
14 9 40 -11 40 -32z m128 36 c17 -5 22 -14 22 -38 0 -24 9 -41 35 -66 26 -25
35 -42 33 -60 -3 -24 -6 -25 -77 -28 -41 -2 -78 1 -83 6 -4 4 -10 39 -12 76
l-5 69 20 -22 c26 -28 63 -29 54 -1 -5 15 -2 20 11 20 14 0 14 2 3 16 -11 14
-15 13 -30 -8 -18 -23 -18 -23 -33 -3 -9 11 -16 23 -16 27 0 4 -10 9 -22 11
-13 2 0 5 27 6 28 0 60 -2 73 -5z m1339 -16 c-3 -8 -6 -5 -6 6 -1 11 2 17 5
13 3 -3 4 -12 1 -19z m1663 12 c0 -5 -4 -10 -10 -10 -5 0 -10 5 -10 10 0 6 5
10 10 10 6 0 10 -4 10 -10z m-2570 -10 c0 -5 -4 -10 -10 -10 -5 0 -10 5 -10
10 0 6 5 10 10 10 6 0 10 -4 10 -10z m1770 0 c0 -5 -4 -10 -10 -10 -5 0 -10 5
-10 10 0 6 5 10 10 10 6 0 10 -4 10 -10z m467 -77 c23 -17 29 -79 25 -270 l-3
-162 -47 20 c-26 11 -63 22 -82 23 -76 7 -130 19 -130 30 0 6 -1 90 -2 186
l-1 175 49 24 c27 14 72 32 99 42 l50 18 13 -37 c7 -20 20 -43 29 -49z m2701
54 c2 -15 -1 -27 -7 -27 -6 0 -11 3 -11 8 0 4 -3 18 -7 31 -4 18 -2 23 8 19 8
-2 15 -17 17 -31z m-566 -12 c5 -31 -15 -33 -23 -3 -7 28 -1 44 13 30 4 -4 9
-16 10 -27z m-5324 -25 c41 -24 80 -40 90 -38 11 3 24 -2 30 -13 14 -21 18
-1849 5 -1849 -5 0 -36 17 -71 39 -34 21 -80 46 -102 56 l-40 18 0 919 c0 506
3 917 8 915 4 -2 40 -23 80 -47z m142 16 c0 -5 -7 -3 -15 4 -8 7 -12 17 -9 22
7 10 24 -9 24 -26z m50 22 c-1 -29 -15 -36 -27 -12 -10 21 -9 24 8 24 10 0 19
-6 19 -12z m118 -3 c2 -2 -3 -14 -12 -27 -13 -18 -16 -19 -16 -5 0 10 -7 20
-15 23 -27 11 -16 27 12 19 16 -4 30 -8 31 -10z m1756 -1 c9 -24 7 -44 -4 -44
-12 0 -30 41 -23 53 7 12 21 8 27 -9z m1974 -24 c3 -30 2 -32 -12 -21 -19 16
-22 65 -3 59 6 -3 13 -20 15 -38z m382 25 c0 -11 -11 -15 -40 -15 -31 0 -38 3
-34 15 4 9 19 15 40 15 24 0 34 -5 34 -15z m316 -10 c7 -29 1 -41 -15 -30 -14
8 -14 55 -1 55 5 0 12 -11 16 -25z m-4496 -7 c0 -19 -2 -20 -10 -8 -13 19 -13
30 0 30 6 0 10 -10 10 -22z m975 1 c5 -5 -32 -9 -88 -9 -58 0 -97 -4 -97 -10
0 -6 33 -10 79 -10 l79 0 7 -65 c3 -36 11 -68 17 -71 8 -5 9 15 4 65 l-7 71
28 1 c15 0 49 2 76 3 l47 2 0 -968 c0 -849 -2 -968 -15 -968 -13 0 -15 99 -17
783 l-3 782 -32 66 c-57 116 -143 196 -253 234 -25 8 -51 17 -58 20 -21 7 23
83 50 87 36 7 172 -4 183 -13z m355 -26 c0 -36 -19 -36 -28 -1 -6 22 -5 35 2
40 13 9 26 -10 26 -39z m1674 31 c10 -26 7 -56 -6 -52 -13 5 -29 53 -20 62 10
10 20 6 26 -10z m-2604 -20 c13 -34 13 -44 -4 -44 -15 0 -26 21 -26 51 0 27
19 23 30 -7z m1794 1 c7 -28 -2 -52 -14 -38 -4 4 -10 20 -14 36 -5 20 -3 27 8
27 7 0 17 -11 20 -25z m-2222 -27 c0 -18 1 -41 0 -50 -1 -10 5 -18 14 -18 9 0
14 -6 12 -12 -3 -7 -20 -13 -39 -13 -34 0 -34 0 -37 52 -3 44 -1 52 12 47 11
-4 16 0 16 10 0 31 20 16 22 -16z m192 6 c12 -48 -14 -44 -29 4 -4 16 -2 22 8
22 8 0 18 -12 21 -26z m1126 -996 l0 -968 -30 0 -30 0 -1 118 c-3 361 -5 1858
-2 1864 2 3 17 -6 33 -20 l30 -26 0 -968z m-1190 980 c25 -28 29 -41 29 -83
-1 -27 -3 -42 -6 -32 -4 15 -13 18 -46 15 l-42 -3 -6 45 c-7 53 -3 71 17 63 8
-3 14 1 14 11 0 23 6 20 40 -16z m2568 24 c17 -12 19 -1532 1 -1542 -11 -8
-130 -22 -135 -17 -2 1 -12 323 -24 716 -11 392 -24 720 -29 729 -6 12 -1 34
15 70 l23 52 68 0 c37 0 74 -4 81 -8z m1789 -10 c8 -14 10 -255 5 -924 l-5
-905 -85 -7 c-54 -4 -89 -3 -96 4 -12 12 -19 10 82 24 45 6 84 16 85 21 1 6
-34 11 -85 13 l-88 3 0 73 0 73 66 6 c37 4 73 12 80 18 12 10 14 143 14 815 0
442 3 804 8 804 4 0 12 -8 19 -18z m-4547 -18 c0 -8 -4 -14 -10 -14 -5 0 -10
9 -10 21 0 11 5 17 10 14 6 -3 10 -13 10 -21z m3853 -852 l-6 -852 -38 -11
c-46 -14 -123 -4 -145 19 -16 15 -17 46 -11 337 4 176 7 557 7 848 l0 527 73
0 c43 0 78 -5 85 -12 9 -9 12 -8 12 7 0 17 2 18 15 4 13 -13 14 -120 8 -867z
m-3756 831 c-3 -10 -5 -4 -5 12 0 17 2 24 5 18 2 -7 2 -21 0 -30z m4179 -378
c7 -220 17 -598 23 -840 6 -242 13 -470 16 -507 4 -51 1 -70 -10 -81 -16 -16
-88 -32 -103 -23 -5 3 -12 173 -15 378 -15 805 -30 1394 -37 1407 -4 7 -2 27
4 43 10 27 14 29 61 26 l50 -3 11 -400z m642 388 c2 -8 -5 -13 -16 -13 -44 0
-51 -9 -46 -58 2 -26 15 -380 29 -787 14 -407 26 -773 28 -812 4 -63 2 -73
-13 -73 -20 0 -24 92 -40 1045 -6 341 -15 630 -20 642 -6 14 -6 33 0 49 8 21
15 25 42 22 17 -2 33 -9 36 -15z m-3160 -10 c-5 -25 -28 -28 -28 -4 0 12 6 21
16 21 9 0 14 -7 12 -17z m124 -281 c-2 -152 -5 -278 -6 -280 -5 -5 -22 532
-18 555 3 18 8 21 16 13 8 -8 10 -93 8 -288z m-62 284 c0 -3 -4 -8 -10 -11 -5
-3 -10 -1 -10 4 0 6 5 11 10 11 6 0 10 -2 10 -4z m-923 -68 c90 -33 158 -100
210 -207 l28 -56 3 -477 c4 -522 8 -489 -54 -468 -16 5 -48 14 -71 20 l-43 11
0 400 0 399 80 -6 c52 -5 80 -3 80 3 0 6 -34 14 -75 18 -72 6 -105 21 -105 47
0 24 -65 136 -101 175 -32 35 -39 50 -39 82 0 22 -4 42 -9 45 -5 3 -7 15 -4
26 6 22 8 22 100 -12z m903 -45 c0 -78 69 -1725 76 -1839 l7 -92 -49 2 -49 1
-7 155 c-3 85 -16 520 -27 965 -12 446 -25 822 -30 838 -9 27 -9 27 35 27 l44
0 0 -57z m4134 -5 c3 -35 10 -322 16 -638 6 -316 13 -722 17 -902 l6 -327 -29
-11 c-37 -15 -157 -9 -178 9 -19 16 -20 187 -9 1269 l6 662 83 0 82 0 6 -62z
m-562 -78 c14 -273 40 -1842 30 -1852 -30 -30 -152 -32 -199 -2 l-21 13 5 973
c2 535 6 978 8 983 1 6 39 10 86 10 l84 0 7 -125z m-3248 111 c3 -5 17 -389
31 -852 13 -464 27 -935 30 -1046 l7 -201 -23 -13 c-33 -17 -150 -24 -192 -10
-19 7 -38 19 -41 28 -4 8 -3 482 1 1054 l6 1038 36 4 c73 8 140 7 145 -2z
m1980 -64 c3 -34 12 -451 21 -927 8 -476 17 -923 20 -995 3 -71 2 -135 -2
-141 -26 -37 -169 -42 -221 -8 l-23 15 6 1047 c4 576 8 1052 10 1057 1 6 43
11 93 12 l90 2 6 -62z m691 -12 c2 -38 6 -221 9 -405 9 -467 25 -1270 30
-1423 4 -127 3 -128 -21 -144 -34 -23 -152 -23 -187 0 l-26 17 0 384 c0 210 3
667 7 1015 l6 632 90 -3 89 -3 3 -70z m-4710 43 c2 -7 1 -422 -3 -923 l-7
-910 -25 3 c-14 1 -30 9 -36 17 -15 20 -17 242 -8 1117 6 628 8 698 23 701 32
9 52 7 56 -5z m3235 -25 c0 -21 4 -211 10 -423 5 -212 14 -637 20 -945 5 -308
12 -618 15 -688 l4 -128 -37 -16 c-42 -18 -162 -14 -200 6 l-22 12 0 343 c0
188 3 688 7 1109 l6 767 99 0 98 0 0 -37z m-5026 11 c57 -4 87 -11 90 -20 4
-11 -10 -13 -72 -8 -89 7 -145 21 -136 35 3 6 12 8 19 5 8 -3 52 -8 99 -12z
m2157 -1069 c-2 -594 -6 -1082 -8 -1085 -9 -10 -113 -1 -140 12 -27 13 -28 16
-31 103 -2 50 0 531 3 1070 l7 980 87 0 86 0 -4 -1080z m1221 835 c4 -135 11
-409 17 -610 6 -201 18 -628 27 -949 l17 -584 -22 -18 c-40 -33 -196 -39 -250
-10 l-21 12 0 987 c0 543 3 1084 7 1202 l6 215 106 0 106 0 7 -245z m848 228
c0 -13 11 -405 25 -873 40 -1370 41 -1398 23 -1413 -9 -7 -43 -17 -76 -23 -72
-13 -167 3 -181 29 -6 11 -7 481 -4 1160 l6 1142 104 0 c100 0 103 -1 103 -22z
m-2306 -52 c8 -78 8 -1860 0 -1881 -4 -9 -19 -15 -39 -15 -69 0 -64 -71 -65
989 0 527 2 960 5 963 2 2 24 5 48 7 l44 2 7 -65z m-1776 45 c10 -6 10 -10 -2
-20 -18 -15 -37 -6 -29 14 6 17 12 18 31 6z m334 -21 c5 -35 -2 -38 -27 -10
-10 11 -22 20 -27 20 -5 0 -6 -9 -3 -20 7 -23 -1 -26 -21 -6 -7 8 -19 17 -26
19 -23 10 14 27 58 27 39 0 42 -2 46 -30z m71 13 c2 -10 8 -26 12 -35 11 -27
-21 -23 -50 7 -33 32 -31 45 4 45 19 0 30 -6 34 -17z m147 -8 c0 -16 6 -25 15
-25 8 0 15 -4 15 -10 0 -20 -39 -10 -58 15 -11 14 -23 25 -26 25 -4 0 -4 -11
0 -25 3 -14 3 -25 0 -25 -10 0 -66 30 -66 34 0 3 -3 11 -6 20 -5 14 4 16 60
16 64 0 66 -1 66 -25z m200 7 c0 -10 5 -23 12 -30 6 -6 9 -14 6 -18 -7 -7 -48
16 -65 36 -10 13 -13 10 -13 -15 -1 -16 -4 -24 -7 -17 -2 6 -9 12 -15 12 -6 0
-17 8 -24 18 -13 16 -13 16 -14 0 0 -22 -18 -24 -26 -3 -4 8 -12 15 -20 15 -8
0 -14 5 -14 10 0 6 37 10 90 10 80 0 90 -2 90 -18z m70 -14 c0 -18 -4 -28 -8
-22 -4 6 -15 13 -24 17 -28 10 -22 37 7 37 22 0 25 -4 25 -32z m71 6 c5 -15 7
-29 4 -32 -3 -3 -5 0 -5 7 0 8 -8 11 -20 8 -13 -3 -24 1 -30 13 -14 27 -13 30
15 30 18 0 28 -7 36 -26z m1419 -56 c0 -46 4 -222 10 -393 5 -170 19 -645 30
-1055 10 -410 21 -787 24 -838 4 -87 3 -93 -18 -107 -66 -43 -232 -38 -270 7
-17 22 -18 42 -12 378 3 195 6 745 6 1223 l0 867 115 0 115 0 0 -82z m-2190
53 c0 -17 -4 -18 -37 -10 -21 5 -41 9 -45 9 -5 0 -8 5 -8 10 0 6 20 10 45 10
37 0 45 -3 45 -19z m85 -7 l17 -27 -28 7 c-53 14 -74 46 -30 46 15 0 30 -10
41 -26z m737 0 c8 -17 18 -24 30 -21 10 3 21 1 24 -4 3 -5 -6 -9 -20 -9 -26 0
-66 31 -66 50 0 20 21 10 32 -16z m156 1 c16 -36 17 -35 -33 -35 -25 0 -45 5
-45 11 0 18 -33 46 -38 31 -4 -13 -22 -7 -22 9 0 5 29 9 63 9 59 0 65 -2 75
-25z m72 11 c0 -8 3 -21 6 -30 8 -21 -19 -21 -40 0 -24 23 -20 44 9 44 15 0
25 -6 25 -14z m60 -16 c0 -34 -7 -38 -26 -12 -19 25 -17 42 6 42 16 0 20 -7
20 -30z m-1355 -19 c90 -13 172 -24 210 -28 17 -1 194 -6 394 -9 338 -6 364
-7 382 -25 17 -17 36 -19 194 -19 l175 0 0 -658 c0 -363 -3 -693 -6 -735 l-7
-76 -38 -6 c-21 -4 -84 -6 -141 -6 -57 0 -124 -2 -150 -5 -42 -5 -47 -9 -50
-32 -3 -25 -7 -27 -58 -30 -85 -5 -194 13 -351 59 -155 45 -206 67 -314 136
-168 108 -213 141 -269 197 l-59 59 6 59 c4 50 2 66 -16 96 -22 36 -22 45 -25
526 -2 269 -1 495 2 503 3 8 15 12 28 9 13 -3 55 -10 93 -15z m4648 -193 l98
-21 -1 -578 c-1 -336 -5 -581 -10 -584 -5 -3 -64 13 -130 37 l-120 43 0 114
c0 104 1 113 18 106 52 -22 174 -65 182 -65 6 0 10 4 10 9 0 9 -166 71 -193
71 -17 0 -23 25 -17 75 3 28 4 28 40 10 17 -9 39 -15 48 -13 11 3 -1 13 -34
31 -28 14 -54 32 -56 39 -3 7 -3 68 0 134 l5 122 79 -29 c85 -31 98 -34 98
-20 0 5 -35 21 -77 35 -43 15 -84 30 -91 34 -9 6 -12 65 -13 238 0 126 0 232
0 236 1 9 31 4 164 -24z m645 -620 l-3 -603 -93 -11 c-51 -5 -95 -7 -97 -4 -2
3 -5 48 -6 100 l-2 95 82 16 c45 9 84 19 88 23 15 15 -8 15 -86 0 -46 -9 -84
-14 -86 -12 -1 2 -6 222 -10 491 l-7 487 58 1 c33 0 79 4 104 8 25 5 48 9 53
10 4 0 6 -270 5 -601z m860 -20 l-3 -493 -52 -3 c-29 -2 -53 -2 -53 0 -2 14
-29 877 -30 926 l0 62 70 0 70 0 -2 -492z m-6565 255 c-4 -10 -18 -34 -31 -53
-38 -56 -532 -1060 -532 -1081 0 -41 34 -44 328 -25 504 31 472 31 472 10 0
-11 -9 -113 -20 -229 -34 -356 -34 -355 -16 -438 29 -128 109 -229 231 -289
192 -96 568 -154 1140 -178 138 -6 313 -10 390 -10 77 1 146 1 153 0 6 0 12
-6 12 -14 0 -21 -56 -26 -305 -26 -721 0 -1308 72 -1526 186 -87 46 -160 123
-189 202 -37 96 -36 159 9 466 27 178 38 283 32 289 -6 6 -113 2 -293 -12
-156 -12 -324 -21 -374 -21 -81 0 -93 2 -112 23 -46 49 -42 70 56 243 479 847
509 898 546 941 32 37 38 41 29 16z m252 -114 c0 -95 -3 -114 -15 -114 -12 0
-16 20 -18 103 -4 110 0 136 21 129 9 -3 12 -35 12 -118z m-2 -166 c-7 -2 -19
-2 -25 0 -7 3 -2 5 12 5 14 0 19 -2 13 -5z m5 -55 c-2 -16 -12 -24 -36 -29
-37 -7 -43 -2 -35 29 4 17 13 22 40 22 30 0 34 -3 31 -22z m28 -95 c12 -24 19
-44 16 -44 -4 -1 -30 -2 -58 -3 -33 -1 -59 -7 -70 -18 -28 -24 -46 0 -42 55 3
38 6 42 33 48 17 3 45 5 64 5 30 -1 37 -6 57 -43z m2907 -99 l47 -16 0 -279
c0 -153 -3 -279 -6 -279 -3 0 -41 21 -85 47 l-79 48 0 257 0 256 38 -9 c20 -6
58 -17 85 -25z m-2909 20 c19 -7 19 -20 5 -119 l-11 -75 -54 0 -54 0 -2 43
c-3 91 0 127 12 142 13 15 74 21 104 9z m6939 -84 c4 0 7 -7 7 -16 0 -9 -6
-14 -12 -11 -7 2 -46 15 -85 28 -40 12 -73 28 -73 35 0 9 23 5 78 -12 42 -13
80 -24 85 -24z m-60 -50 l67 -21 0 -125 c0 -109 -2 -125 -15 -120 -9 3 -41 13
-73 22 -31 9 -60 19 -63 23 -4 3 -9 61 -13 129 -6 116 -5 123 11 118 10 -3 48
-15 86 -26z m-6781 -75 c142 -128 387 -268 543 -310 55 -15 123 -34 150 -42
28 -8 91 -17 140 -20 149 -9 159 -12 166 -58 3 -22 45 -121 93 -220 100 -204
158 -336 152 -342 -4 -4 -56 -10 -105 -12 -19 -1 -22 -5 -16 -23 3 -13 8 -35
9 -49 3 -30 13 -49 27 -49 6 0 7 9 4 20 -5 16 -2 20 18 20 24 0 42 21 30 34
-4 3 -19 6 -35 6 -15 0 -28 5 -28 10 0 6 3 10 8 10 4 0 30 3 57 6 l50 6 90
-182 c86 -174 90 -183 87 -241 -1 -33 3 -69 9 -81 l11 -21 -178 7 c-614 23
-1030 85 -1215 182 -86 45 -159 123 -191 202 -27 68 -29 164 -9 393 l13 146
42 19 41 19 -2 110 c0 61 -4 142 -8 182 l-7 71 38 11 c22 6 49 11 61 11 12 0
25 5 29 11 7 12 -78 8 -108 -5 -16 -7 -18 -2 -18 43 0 29 -6 67 -14 86 -8 19
-11 37 -7 39 4 3 6 19 3 36 -2 16 -1 30 3 30 4 0 34 -25 67 -55z m7293 -24
c65 -21 121 -43 123 -50 6 -17 -14 -14 -135 26 -66 22 -113 43 -113 50 0 16
-16 19 125 -26z m-7390 -11 c11 -21 15 -61 15 -147 l0 -119 -112 1 c-62 0
-130 -5 -150 -11 -48 -15 -49 -8 -7 94 18 43 40 99 49 126 9 28 23 53 31 57
34 17 77 27 116 28 37 1 44 -3 58 -29z m4052 -172 c-2 -35 -3 -7 -3 62 0 69 1
97 3 63 2 -35 2 -91 0 -125z m3343 114 l115 -39 3 -116 c1 -65 -1 -117 -5
-117 -13 1 -222 66 -226 70 -8 9 -16 240 -9 240 4 0 59 -17 122 -38z m-2650
-16 l115 -43 3 -55 3 -55 -46 -6 c-63 -9 -366 -29 -371 -25 -2 2 -4 51 -6 108
l-3 105 35 6 c93 17 153 9 270 -35z m3559 -209 c198 -64 248 -83 225 -87 -29
-6 -85 10 -494 144 -133 43 -196 68 -198 79 -3 12 18 9 105 -20 59 -19 222
-72 362 -116z m-2896 111 c-11 -13 -26 -33 -32 -45 -10 -21 -19 -23 -82 -23
l-70 0 3 38 3 37 55 6 c30 3 75 6 99 7 l44 2 -20 -22z m1468 -8 l69 -21 0 -43
c0 -46 -10 -56 -56 -56 -18 0 -24 5 -24 23 0 16 -12 31 -37 48 -37 23 -58 69
-32 69 6 0 43 -9 80 -20z m-1412 -22 c8 -9 44 -13 107 -13 95 0 120 -7 63 -19
-75 -15 -175 0 -199 29 -10 12 -10 15 2 15 8 0 20 -6 27 -12z m3009 -212 c16
-10 17 -206 0 -206 -11 0 -452 131 -575 171 l-63 21 0 113 0 113 313 -102
c172 -57 319 -106 325 -110z m-2893 156 c94 5 115 -5 34 -16 -87 -12 -191 7
-211 38 -16 24 6 24 48 0 41 -24 52 -26 129 -22z m1143 -4 c2 -9 -4 -18 -13
-21 -11 -5 -15 0 -15 19 0 28 23 29 28 2z m-1858 -3 c0 -13 -20 -15 -127 -14
-136 2 -134 5 17 18 52 5 98 9 103 10 4 0 7 -6 7 -14z m1960 5 c0 -5 -4 -10
-10 -10 -5 0 -10 5 -10 10 0 6 5 10 10 10 6 0 10 -4 10 -10z m-1482 -27 c-3
-27 -6 -28 -60 -31 -55 -3 -58 -2 -58 21 0 33 6 37 67 37 53 0 54 -1 51 -27z
m240 -10 c85 6 114 -7 40 -18 -52 -8 -175 11 -205 31 -36 23 -27 24 30 2 43
-17 66 -19 135 -15z m-3983 6 c46 -31 163 -89 180 -89 19 0 20 5 -10 -68 -22
-54 -24 -68 -15 -107 6 -25 19 -65 31 -89 17 -37 23 -42 44 -38 19 3 25 0 25
-12 0 -9 12 -46 28 -82 23 -56 30 -64 50 -61 23 4 30 -7 11 -18 -24 -16 16
-104 82 -179 36 -41 64 -45 164 -21 33 8 63 15 68 15 16 0 6 -34 -21 -69 -55
-70 -84 -130 -77 -159 6 -29 61 -117 107 -170 34 -41 42 -41 281 4 231 44 257
53 258 91 0 15 3 23 5 17 3 -7 54 -3 162 12 86 13 157 24 158 24 1 0 21 -16
45 -35 34 -27 53 -35 85 -35 77 0 369 47 427 69 20 8 27 17 27 38 0 16 4 33 8
39 4 6 67 19 139 29 l132 18 37 -29 c67 -53 61 -52 179 -38 130 15 325 53 343
67 6 5 12 26 12 46 l0 37 113 17 c62 9 117 17 124 17 6 0 31 -16 54 -36 l44
-36 90 6 c82 6 239 28 307 42 38 8 50 65 21 97 -22 25 -46 75 -47 97 -1 12 24
19 109 31 146 22 186 23 179 5 -3 -8 -1 -23 5 -34 10 -18 5 -20 -63 -31 -41
-6 -99 -14 -130 -17 -38 -5 -56 -11 -56 -21 0 -24 21 -24 160 -4 146 22 133
24 200 -28 24 -18 31 -18 150 -6 132 14 182 21 243 36 35 9 37 12 37 49 0 22
-4 40 -10 40 -15 0 -54 90 -44 99 7 7 164 31 201 31 6 0 9 -8 6 -19 -3 -10 0
-22 6 -25 25 -16 6 -24 -79 -35 -63 -9 -90 -17 -90 -26 0 -23 14 -24 115 -9
91 13 99 13 123 -3 59 -42 65 -44 157 -38 85 6 239 29 278 41 9 3 18 16 19 30
0 13 1 30 2 37 1 15 29 25 75 26 23 1 46 -8 69 -25 34 -26 37 -27 136 -20 113
7 265 33 283 48 6 5 13 24 15 41 3 29 7 32 43 38 41 7 82 -10 121 -48 12 -12
36 -15 107 -14 51 1 110 7 132 12 22 6 63 15 91 21 46 8 52 13 58 39 6 31 -1
59 -15 59 -4 0 -14 15 -22 33 -34 77 -37 87 -26 87 13 0 539 -160 557 -169 6
-4 -111 -26 -260 -49 -319 -49 -2246 -346 -3418 -527 -2394 -369 -2820 -435
-2829 -435 -6 0 -11 22 -11 51 0 36 -9 71 -33 123 -19 39 -37 85 -41 101 -14
59 -60 144 -81 149 -11 3 -40 6 -65 6 l-45 0 -230 456 c-126 251 -231 460
-233 464 -1 4 59 12 135 19 76 7 147 14 158 15 64 10 112 5 140 -15z m-1732
-3 c10 10 118 7 140 -5 21 -11 25 -22 31 -79 10 -114 8 -140 -13 -152 -41 -21
-44 -15 -36 89 l7 99 -69 4 c-37 3 -72 1 -77 -3 -6 -5 -36 -9 -68 -9 -51 0
-58 2 -58 19 0 11 5 23 12 27 22 14 73 20 100 13 14 -4 28 -5 31 -3z m4689 5
c2 -5 35 -31 73 -57 l70 -46 83 6 82 6 0 -58 0 -58 -72 -2 c-70 -2 -301 -28
-324 -37 -13 -4 -24 39 -24 91 0 38 3 39 114 48 87 7 102 19 50 43 -21 9 -47
24 -56 32 -10 8 -35 15 -55 17 -21 2 -41 3 -45 3 -5 1 -8 6 -8 11 0 13 107 13
112 1z m-1697 -61 c81 -48 108 -60 143 -60 24 0 53 -5 64 -11 12 -7 44 -14 72
-18 l51 -6 3 -45 3 -46 -119 4 c-127 4 -149 -3 -118 -37 9 -10 39 -30 66 -45
41 -22 60 -27 107 -24 l58 3 -3 -154 c-1 -85 -5 -157 -7 -161 -2 -4 -52 -13
-110 -20 -58 -7 -108 -17 -111 -21 -7 -12 112 -129 133 -130 13 -1 11 -3 -7
-9 -32 -10 -119 -12 -103 -2 9 5 -8 28 -53 70 l-65 63 -80 -12 c-44 -6 -81
-10 -83 -8 -2 2 -7 79 -10 172 l-7 167 110 1 c61 1 116 3 121 4 6 1 26 3 45 4
48 1 45 21 -7 64 -65 52 -80 57 -177 57 -66 0 -91 3 -91 13 0 8 21 12 66 13
108 3 156 13 152 32 -2 9 -12 18 -23 20 -11 2 -42 20 -70 40 -37 27 -61 37
-90 37 -40 1 -40 1 -43 45 -6 82 46 82 183 0z m1993 41 c6 -1 12 -10 12 -20 0
-17 -9 -20 -77 -23 -64 -2 -86 1 -123 19 l-45 22 75 3 c65 3 112 2 158 -1z
m596 -60 c-5 -6 -74 51 -74 61 0 6 17 -5 38 -23 21 -19 37 -36 36 -38z m916
-30 c0 -55 -3 -102 -7 -104 -5 -3 -37 -8 -73 -12 -62 -6 -64 -6 -42 10 14 10
22 27 22 46 0 27 3 29 39 29 26 0 41 5 45 15 8 21 -15 28 -75 23 -42 -4 -49
-3 -47 11 2 12 18 17 66 19 46 2 62 7 62 17 0 12 -16 15 -74 15 -98 0 -109 18
-14 23 40 1 79 4 86 5 9 1 12 -23 12 -97z m484 66 c5 -27 15 -37 51 -55 43
-21 45 -23 45 -67 0 -25 -2 -45 -4 -45 -2 0 -32 13 -67 30 -54 25 -70 29 -119
23 l-56 -5 -3 54 -2 55 38 1 c21 1 49 3 63 5 14 3 29 5 34 6 6 0 1 8 -10 16
-19 14 -19 14 2 15 17 0 23 -8 28 -33z m659 -37 c19 0 5 -74 -20 -111 -31 -42
-56 -51 -152 -53 l-56 -1 -3 117 -3 116 113 -34 c62 -18 116 -34 121 -34z
m-2956 22 c17 -9 30 -20 27 -24 -3 -4 -34 -8 -70 -8 -61 0 -64 1 -64 24 0 38
42 41 107 8z m2383 18 c18 -12 2 -12 -25 0 -13 6 -15 9 -5 9 8 0 22 -4 30 -9z
m-1433 -6 c-3 -3 -12 -4 -19 -1 -8 3 -5 6 6 6 11 1 17 -2 13 -5z m163 -14 c0
-4 -33 -13 -72 -20 -40 -6 -85 -13 -100 -16 -20 -4 -28 -2 -28 9 0 11 24 19
93 29 92 15 107 14 107 -2z m500 14 c0 -12 -73 -34 -112 -33 l-43 1 33 9 c17
5 47 13 65 18 39 11 57 13 57 5z m-813 -10 c-3 -3 -32 -8 -64 -10 -41 -2 -51
-1 -33 5 28 10 106 14 97 5z m823 -20 c0 -22 -61 -44 -117 -43 l-48 1 65 14
c35 8 71 21 79 29 19 19 21 19 21 -1z m769 0 c2 -2 2 -7 -1 -10 -4 -3 -19 2
-35 11 l-28 16 30 -6 c16 -4 32 -9 34 -11z m-5573 -437 c198 -396 204 -409
193 -441 l-12 -33 -52 111 c-62 131 -191 414 -247 541 -22 50 -55 122 -74 162
-33 69 -46 116 -23 83 5 -8 102 -199 215 -423z m4021 408 c2 -6 -29 -11 -77
-12 -64 -1 -80 2 -80 13 0 12 15 14 77 12 42 -2 78 -7 80 -13z m273 -25 c0
-35 -11 -37 -65 -14 -42 17 -41 23 7 34 54 13 58 12 58 -20z m538 18 c-6 -21
-69 -46 -130 -53 -79 -10 -76 10 3 24 34 6 71 17 83 25 26 18 49 20 44 4z
m2410 -115 l-3 -107 -35 -7 c-19 -4 -38 -5 -42 -3 -5 3 -8 54 -8 115 l0 109
45 0 46 0 -3 -107z m-5858 87 c19 -6 51 -24 70 -40 l35 -29 -55 -1 c-30 -1
-69 -3 -86 -5 -29 -4 -32 -2 -37 32 -9 56 3 63 73 43z m2817 -27 l78 -38 -105
-5 c-88 -4 -105 -8 -108 -22 -2 -9 6 -22 19 -28 39 -21 161 -51 181 -44 14 4
18 2 14 -5 -4 -6 -16 -11 -26 -11 -38 0 -170 -23 -170 -29 0 -4 17 -15 37 -26
20 -11 54 -36 75 -56 35 -32 38 -38 24 -51 -9 -9 -44 -19 -83 -22 -37 -4 -111
-14 -163 -21 -73 -11 -96 -11 -102 -2 -4 7 -8 71 -8 143 0 145 0 144 63 144
45 0 77 10 77 24 0 6 -19 22 -42 35 -47 27 -47 27 32 40 100 16 125 13 207
-26z m-3704 -13 c15 0 27 -4 27 -10 0 -16 -53 -12 -78 6 -12 8 -22 22 -22 31
0 14 4 13 23 -5 13 -12 35 -22 50 -22z m3423 3 c18 -16 34 -31 34 -34 0 -4
-20 -9 -45 -11 l-45 -3 0 37 c0 45 10 47 56 11z m944 -1 c0 -16 -14 -20 -97
-31 -53 -7 -102 -15 -110 -18 -7 -3 -13 2 -13 11 0 9 1 16 3 17 1 0 49 8 107
18 58 10 106 19 108 20 1 0 2 -7 2 -17z m-6404 -24 c-3 -13 -6 -33 -6 -45 l0
-23 -346 0 c-352 0 -373 2 -401 39 -21 27 -14 32 20 15 29 -16 45 -16 177 -5
329 28 458 38 509 40 51 1 53 0 47 -21z m1979 2 c11 -12 31 -20 52 -20 18 0
33 -5 33 -11 0 -17 -78 -4 -101 17 -10 9 -19 21 -19 26 0 14 16 9 35 -12z
m5034 -9 c40 -21 34 -24 -54 -36 -27 -3 -58 -8 -67 -11 -14 -4 -18 1 -18 25 0
26 4 30 33 34 61 7 72 6 106 -12z m722 -8 c47 -24 153 -29 207 -10 29 10 42
11 39 4 -9 -29 -136 -47 -214 -31 -30 6 -97 53 -77 54 6 0 26 -8 45 -17z m101
-61 c74 -3 94 -1 128 17 47 24 50 25 50 10 0 -5 -21 -19 -47 -31 -98 -43 -342
-3 -308 52 3 5 23 -2 47 -18 36 -23 54 -27 130 -30z m-5858 33 c11 -8 32 -15
48 -15 15 0 28 -4 28 -10 0 -17 -43 -11 -77 10 -32 19 -41 30 -25 30 4 0 16
-7 26 -15z m3037 5 c17 -9 19 -22 19 -99 l0 -88 -127 -17 c-70 -9 -129 -18
-130 -20 -2 -1 17 -21 41 -44 25 -23 48 -51 51 -63 6 -18 12 -20 43 -14 21 3
45 8 54 11 14 4 15 2 5 -20 -7 -14 -13 -22 -15 -18 -1 5 -60 0 -130 -9 -153
-22 -178 -23 -185 -6 -3 9 13 13 56 14 97 4 98 6 32 73 -39 39 -67 60 -83 60
-21 0 -23 4 -20 37 3 43 -15 37 225 74 108 16 154 27 158 37 3 8 4 17 1 19 -2
2 -62 -5 -132 -17 -71 -11 -145 -22 -164 -25 -19 -3 -47 -8 -62 -11 -27 -5
-28 -4 -28 39 l0 45 63 7 c34 4 98 11 142 15 44 5 96 13 115 18 47 13 49 13
71 2z m812 -15 c3 -13 -29 -18 -61 -9 l-27 7 30 8 c37 9 55 7 58 -6z m705 -31
c-5 -27 -40 -29 -79 -5 -32 20 -32 20 -8 25 74 16 93 12 87 -20z m-3181 2 c21
-19 0 -35 -52 -40 -40 -4 -58 0 -99 22 l-50 27 45 5 c61 7 141 0 156 -14z
m490 13 c-10 -6 -25 -8 -33 -5 -8 3 -14 -1 -14 -9 0 -9 10 -15 23 -16 l22 0
-21 -9 c-12 -5 -25 -14 -29 -20 -11 -17 -25 8 -25 43 0 26 2 27 48 27 38 -1
43 -3 29 -11z m3331 -10 c52 -26 160 -31 209 -10 18 7 38 11 45 8 30 -11 -66
-38 -140 -38 -80 -1 -135 14 -161 44 -18 23 -6 21 47 -4z m-105 -5 c-8 -22
-38 -31 -123 -40 -67 -6 -72 -6 -68 12 3 15 18 21 78 30 111 17 120 17 113 -2z
m-4005 -13 c9 -5 28 -21 41 -35 l24 -26 -99 0 c-54 0 -116 -3 -136 -6 l-38 -7
0 47 0 47 95 -5 c52 -3 103 -10 113 -15z m3312 4 c42 -22 37 -31 -19 -39 -37
-5 -59 -2 -85 11 -57 27 -50 31 57 41 10 1 31 -5 47 -13z m1203 -12 c6 -34 8
-33 -37 -40 -29 -4 -40 -2 -51 13 -28 37 -17 47 61 53 16 1 23 -6 27 -26z
m128 7 c63 -28 213 -28 271 0 52 25 61 25 48 0 -31 -58 -311 -54 -360 5 -16
20 -11 19 41 -5z m-558 -17 c38 -26 50 -28 137 -28 76 0 102 4 124 18 15 10
32 17 39 14 23 -7 -46 -41 -102 -49 -115 -16 -251 14 -251 57 0 20 4 19 53
-12z m-4990 0 c49 -7 48 -23 -2 -23 -25 0 -47 7 -62 21 l-24 21 25 -7 c14 -4
42 -9 63 -12z m-185 -18 c-3 -3 -9 2 -12 12 -6 14 -5 15 5 6 7 -7 10 -15 7
-18z m102 4 c0 -5 -4 -9 -10 -9 -5 0 -10 7 -10 16 0 8 5 12 10 9 6 -3 10 -10
10 -16z m-40 1 c0 -9 -31 -30 -44 -30 -12 0 -6 28 7 33 20 9 37 8 37 -3z
m4175 -6 c13 -5 14 -8 3 -15 -19 -13 -28 -11 -28 6 0 17 2 18 25 9z m-4045
-30 c17 3 30 1 30 -4 0 -6 -25 -10 -55 -10 -49 0 -55 2 -55 20 0 20 1 20 25 4
17 -11 36 -14 55 -10z m1666 -40 c-20 -26 -36 -53 -36 -60 0 -8 -4 -14 -10
-14 -6 0 -10 27 -10 60 l0 60 34 0 c19 0 38 5 42 12 6 9 9 9 12 0 2 -6 -13
-32 -32 -58z m2747 47 c56 -28 141 -35 211 -16 62 16 76 15 52 -4 -26 -22
-152 -35 -210 -22 -54 12 -96 35 -96 52 0 12 0 12 43 -10z m702 -26 c82 0 108
4 143 21 48 25 65 16 27 -15 -32 -24 -115 -36 -201 -27 -73 7 -155 35 -161 53
-3 8 14 4 44 -10 39 -18 66 -22 148 -22z m433 -4 c7 -21 -15 -11 -44 21 l-29
32 35 -22 c19 -11 36 -26 38 -31z m-1883 14 c0 -32 -30 -41 -71 -22 -42 20
-36 34 16 40 48 5 55 3 55 -18z m1191 -12 c-11 -34 -17 -38 -50 -41 -41 -4
-66 11 -66 39 0 14 11 19 48 24 26 4 52 8 57 10 22 8 23 4 11 -32z m739 27 c3
-5 1 -10 -4 -10 -6 0 -11 5 -11 10 0 6 2 10 4 10 3 0 8 -4 11 -10z m305 -3 c0
-10 -44 -19 -162 -34 -90 -11 -167 -17 -171 -13 -18 16 25 28 138 40 66 6 122
14 124 16 11 11 71 3 71 -9z m-1595 -16 c-26 -24 -265 -58 -277 -39 -4 7 -5
14 -2 17 6 7 213 39 259 40 39 1 39 1 20 -18z m90 -18 c37 -26 47 -28 145 -28
84 0 110 4 130 18 28 19 40 22 40 7 0 -5 -15 -17 -32 -27 -26 -14 -58 -18
-148 -18 -98 0 -120 3 -150 21 -19 11 -36 28 -38 37 -5 24 7 21 53 -10z
m-4463 1 c19 -10 44 -14 64 -11 33 6 54 -6 34 -18 -17 -11 -100 6 -123 26 -27
23 -16 24 25 3z m6673 6 c-11 -4 -81 -18 -155 -29 -278 -43 -2759 -433 -5040
-792 -454 -71 -969 -152 -1145 -179 -176 -28 -330 -53 -342 -55 -18 -4 -23 -1
-23 15 0 11 4 20 8 20 5 0 240 36 523 80 502 77 1749 270 3664 565 523 81
1292 200 1710 265 418 65 774 118 790 118 25 1 27 -1 10 -8z m-4854 -42 c55
-28 184 -31 243 -5 24 11 43 14 49 8 5 -5 -11 -16 -39 -27 -70 -27 -217 -26
-263 1 -19 11 -36 26 -39 33 -5 17 1 15 49 -10z m2975 -13 c-23 -61 -284 -65
-376 -6 -30 20 -1 21 41 1 67 -30 227 -28 289 4 49 25 56 25 46 1z m249 -9
c11 -8 15 -16 8 -16 -7 0 -25 12 -40 26 -29 26 -6 20 32 -10z m55 24 c0 -5 -4
-10 -10 -10 -5 0 -10 5 -10 10 0 6 5 10 10 10 6 0 10 -4 10 -10z m310 -3 c0
-10 -42 -18 -160 -32 -179 -20 -175 -20 -175 -2 0 8 40 17 125 28 164 22 210
23 210 6z m-1624 -19 c49 -29 170 -36 234 -14 45 15 57 15 46 -2 -23 -38 -245
-42 -294 -5 -24 18 -40 43 -28 43 2 0 21 -10 42 -22z m-3766 2 c0 -5 -5 -10
-11 -10 -5 0 -7 5 -4 10 3 6 8 10 11 10 2 0 4 -4 4 -10z m1863 -54 c55 -8 181
10 213 30 29 20 45 11 22 -12 -22 -23 -86 -33 -201 -34 -125 0 -189 24 -173
65 4 12 14 9 51 -14 25 -16 65 -32 88 -35z m-1895 18 c-4 -3 -12 5 -18 18 -12
22 -12 22 6 6 10 -10 15 -20 12 -24z m92 15 c0 -11 -69 -43 -77 -35 -11 11 7
35 29 39 41 8 48 7 48 -4z m3691 -21 c50 -31 57 -33 149 -33 81 1 101 4 132
23 22 14 39 19 43 12 12 -19 -55 -47 -128 -53 -138 -12 -257 17 -257 63 0 11
2 20 4 20 3 0 28 -15 57 -32z m681 -25 c12 -13 19 -26 15 -29 -8 -8 -97 63
-97 77 0 13 55 -20 82 -48z m-1514 25 c-7 -49 -103 -64 -153 -24 l-30 24 50 7
c28 4 55 8 60 10 6 2 25 4 43 4 29 1 33 -2 30 -21z m-2671 -36 c44 -3 70 -8
66 -15 -3 -5 -37 -8 -82 -5 -80 5 -141 28 -141 53 0 13 8 11 43 -6 27 -14 67
-24 114 -27z m1663 -16 c85 0 125 5 154 17 47 21 46 21 46 2 0 -22 -32 -34
-115 -43 -119 -13 -264 15 -279 54 -4 10 7 7 37 -8 37 -20 56 -23 157 -22z
m2910 29 c0 -8 -3 -15 -7 -15 -5 0 -51 -6 -103 -14 -160 -24 -237 -29 -244
-17 -10 16 3 19 164 40 185 24 190 24 190 6z m-313 -1 c-3 -3 -12 -4 -19 -1
-8 3 -5 6 6 6 11 1 17 -2 13 -5z m-4412 -14 c15 -25 96 -50 160 -50 47 0 64
-3 59 -11 -10 -16 -187 -3 -224 16 -28 14 -44 38 -33 49 10 9 31 7 38 -4z
m2470 -12 c44 -29 44 -38 0 -38 -19 0 -38 -1 -42 -2 -8 -4 -14 33 -8 50 6 16
10 16 50 -10z m1170 -3 c28 -13 70 -20 140 -23 91 -4 105 -2 159 22 32 14 60
26 62 26 11 0 1 -22 -17 -39 -59 -55 -332 -39 -386 22 -10 11 -13 18 -8 15 6
-2 28 -13 50 -23z m-757 -25 c56 -29 155 -36 224 -16 66 19 68 19 68 6 0 -16
-100 -40 -165 -40 -70 0 -145 22 -171 51 -22 25 -5 24 44 -1z m-1298 -10 c9
-16 8 -20 -5 -20 -8 0 -15 9 -15 20 0 11 2 20 5 20 2 0 9 -9 15 -20z m2021
-17 c27 -20 49 -43 49 -50 0 -23 -14 -14 -65 37 -58 59 -51 65 16 13z m-3595
-4 c33 -15 73 -23 129 -24 44 -2 78 -7 75 -12 -8 -13 -140 -4 -192 13 -25 8
-52 22 -58 30 -16 19 -11 18 46 -7z m1671 -32 c-5 -17 -21 -8 -41 25 l-21 33
32 -25 c17 -14 31 -29 30 -33z m333 39 c0 -19 -14 -23 -162 -46 -158 -24 -150
-24 -146 -3 3 14 29 21 143 39 77 12 146 22 153 23 6 0 12 -5 12 -13z m847
-16 c33 -21 67 -32 108 -36 69 -7 171 9 195 31 9 8 22 15 29 15 23 0 5 -25
-32 -43 -55 -28 -273 -26 -326 2 -26 14 -44 39 -36 51 8 14 7 14 62 -20z
m-1125 9 c-15 -6 -30 -5 -40 1 -13 7 -8 9 23 9 35 0 37 -1 17 -10z m2308 -9
c0 -18 -42 -28 -190 -45 -154 -18 -194 -18 -182 2 4 6 77 20 162 31 188 24
210 25 210 12z m-342 -7 c-10 -2 -26 -2 -35 0 -10 3 -2 5 17 5 19 0 27 -2 18
-5z m-2058 -48 c13 -14 21 -27 19 -30 -3 -2 -24 -5 -48 -7 -37 -3 -44 0 -47
17 -2 11 -2 26 1 33 7 21 50 13 75 -13z m1362 -25 c83 0 106 4 154 25 60 26
68 27 59 4 -9 -24 -42 -38 -116 -50 -96 -15 -217 2 -288 41 -45 23 -18 26 37
4 46 -19 75 -24 154 -24z m-929 20 c26 -12 75 -23 109 -26 58 -5 85 0 186 31
38 12 25 -15 -15 -32 -27 -12 -70 -17 -148 -17 -93 -1 -115 2 -144 19 -19 11
-36 26 -39 33 -5 16 -2 16 51 -8z m643 -21 l3 -35 -92 -13 c-51 -7 -103 -15
-117 -18 -21 -4 -28 2 -44 31 -11 20 -17 38 -15 40 8 8 193 34 229 33 32 -2
34 -4 36 -38z m-2699 -22 c-5 -17 -21 -8 -41 25 l-21 33 32 -25 c17 -14 31
-29 30 -33z m70 39 c4 -3 -10 -6 -30 -6 -20 0 -38 3 -41 8 -5 8 62 7 71 -2z
m133 -21 c0 -8 -1 -15 -2 -15 -2 0 -41 -7 -88 -15 -47 -8 -86 -15 -87 -15 -2
0 -3 8 -3 19 0 15 12 20 63 28 95 16 117 15 117 -2z m1826 -17 c39 -26 59 -32
118 -36 87 -5 178 11 216 38 34 24 40 25 40 5 0 -8 -19 -25 -42 -37 -39 -20
-57 -22 -183 -22 -113 -1 -146 3 -172 17 -37 20 -47 33 -39 52 7 20 8 20 62
-17z m761 -9 c29 -23 53 -45 53 -50 0 -24 -22 -12 -70 36 -64 65 -57 71 17 14z
m-1667 11 c0 -5 -4 -10 -9 -10 -5 0 -13 -9 -16 -20 -12 -37 -41 -43 -80 -18
-19 13 -35 26 -35 30 0 3 28 11 63 16 34 5 65 10 70 11 4 0 7 -3 7 -9z m793
-10 c-3 -11 -10 -20 -15 -20 -5 0 -6 5 -3 10 8 14 -10 13 -160 -10 -143 -21
-172 -24 -161 -12 7 7 265 48 318 51 21 1 25 -3 21 -19z m1325 -17 c-3 -15
-31 -21 -192 -41 -103 -13 -190 -21 -193 -18 -3 3 -3 11 0 19 3 9 54 19 173
31 93 10 171 20 173 22 2 2 13 4 23 4 13 0 18 -6 16 -17z m-821 -26 c-38 -60
-254 -79 -381 -36 -39 13 -72 30 -74 37 -3 11 1 11 24 -1 62 -30 124 -40 221
-34 78 4 105 11 152 34 62 32 79 32 58 0z m471 26 c-10 -2 -26 -2 -35 0 -10 3
-2 5 17 5 19 0 27 -2 18 -5z m-2092 -47 l34 -33 -75 -12 c-42 -6 -82 -11 -89
-11 -13 0 -43 56 -35 65 2 2 31 8 64 13 33 5 61 10 63 11 2 0 19 -14 38 -33z
m376 15 c52 -31 147 -44 220 -31 34 7 71 16 81 21 10 6 28 9 40 6 18 -3 12 -8
-28 -26 -41 -19 -69 -23 -160 -25 -94 -1 -116 2 -150 20 -22 12 -41 28 -43 37
-4 21 0 21 40 -2z m701 2 c3 -5 7 -23 9 -42 l3 -35 -115 -17 c-63 -9 -124 -18
-135 -20 -13 -3 -21 2 -23 16 -2 11 -11 28 -20 38 -8 9 -13 19 -10 22 4 5 230
41 270 44 9 0 19 -2 21 -6z m-711 -55 c44 -26 66 -33 126 -36 88 -5 187 12
220 39 30 23 42 24 42 4 0 -8 -19 -25 -42 -37 -39 -20 -58 -22 -193 -22 -122
0 -156 3 -181 16 -32 18 -49 43 -38 59 7 13 7 13 66 -23z m821 -18 c26 -19 47
-43 47 -52 0 -10 -3 -18 -6 -18 -9 0 -114 102 -114 112 0 11 14 3 73 -42z
m487 1 c0 -14 -10 -20 -42 -25 -24 -3 -115 -17 -203 -31 -192 -30 -175 -29
-175 -6 0 15 14 20 93 31 50 7 139 21 197 31 135 22 130 22 130 0z m-2210 -22
c63 -33 196 -38 279 -10 63 22 79 22 66 2 -12 -21 -118 -43 -208 -44 -80 -1
-99 2 -142 23 -27 14 -51 31 -53 38 -5 18 12 15 58 -9z m1310 -10 c-42 -77
-329 -89 -459 -19 -46 24 -17 26 41 3 57 -24 72 -25 178 -21 101 4 122 8 175
34 66 32 81 33 65 3z m525 21 c-3 -5 -18 -10 -33 -9 -24 0 -25 1 -7 9 28 12
47 12 40 0z m-1207 -7 c-10 -2 -26 -2 -35 0 -10 3 -2 5 17 5 19 0 27 -2 18 -5z
m-70 -10 c-10 -2 -26 -2 -35 0 -10 3 -2 5 17 5 19 0 27 -2 18 -5z m-563 -53
c76 -43 250 -37 336 13 37 21 58 20 44 -3 -4 -7 -28 -22 -54 -33 -40 -18 -66
-21 -191 -21 -153 0 -197 10 -219 53 -14 26 7 46 28 28 9 -8 34 -24 56 -37z
m493 43 c-10 -2 -26 -2 -35 0 -10 3 -2 5 17 5 19 0 27 -2 18 -5z m-58 -7 c0
-3 -4 -8 -10 -11 -5 -3 -10 -1 -10 4 0 6 5 11 10 11 6 0 10 -2 10 -4z m310
-19 c0 -12 7 -33 16 -45 12 -17 12 -22 2 -22 -7 0 -69 -9 -138 -19 -124 -18
-125 -18 -152 2 -16 12 -28 30 -28 43 0 20 8 23 88 34 48 6 110 15 137 20 75
12 75 12 75 -13z m105 -45 c44 -34 61 -52 55 -62 -6 -10 -21 -2 -60 31 -47 40
-79 79 -65 79 3 0 35 -22 70 -48z m485 38 c0 -5 -5 -10 -11 -10 -5 0 -7 5 -4
10 3 6 8 10 11 10 2 0 4 -4 4 -10z m-930 -35 c0 -49 -100 -81 -250 -78 -118 1
-242 34 -248 64 -2 14 7 12 50 -10 49 -24 62 -26 183 -26 125 1 132 2 190 31
72 37 75 38 75 19z m958 -7 c-2 -19 -11 -24 -53 -30 -27 -3 -124 -18 -215 -32
-90 -14 -166 -23 -169 -20 -3 3 -1 12 5 21 8 13 50 23 168 40 87 12 179 27
204 32 26 5 51 9 55 10 5 0 7 -9 5 -21z m-3796 -110 c119 -119 367 -187 844
-233 213 -20 678 -37 922 -33 l202 3 0 -56 0 -56 -82 -6 c-237 -15 -743 -2
-1058 28 -323 32 -578 87 -701 151 -114 60 -186 155 -213 279 l-6 30 23 -30
c12 -16 43 -51 69 -77z m3428 98 c0 -8 -60 -12 -72 -4 -8 4 4 8 30 8 23 0 42
-2 42 -4z m-1632 -43 c-2 -21 -10 -29 -38 -36 -19 -5 -38 -13 -41 -19 -13 -21
-18 10 -7 45 11 34 14 37 50 37 37 0 39 -2 36 -27z m50 5 c7 -7 12 -19 12 -29
0 -9 11 -37 25 -63 14 -26 25 -49 25 -52 0 -2 -13 -4 -29 -4 -25 0 -33 7 -51
44 -16 33 -19 54 -14 80 7 38 13 43 32 24z m1007 2 c-3 -5 -11 -10 -16 -10 -6
0 -7 5 -4 10 3 6 11 10 16 10 6 0 7 -4 4 -10z m-442 -84 c4 4 7 3 7 -3 0 -6
-6 -15 -12 -21 -10 -8 -21 3 -46 41 l-33 52 38 -38 c22 -20 42 -34 46 -31z
m475 42 c-3 -20 -17 -24 -213 -54 -115 -19 -216 -33 -222 -34 -7 0 -13 9 -13
20 0 11 1 20 3 20 7 0 349 53 387 59 25 5 49 9 53 10 5 0 7 -9 5 -21z m-380
-13 c-8 -8 -77 -9 -85 -2 -3 4 15 7 42 7 27 0 46 -2 43 -5z m-696 -58 c29 -52
26 -97 -5 -97 -16 0 -28 13 -44 45 -25 50 -27 55 -15 55 5 0 17 -18 27 -39 10
-22 24 -42 31 -45 20 -8 17 5 -15 64 -16 30 -27 58 -25 62 8 13 21 1 46 -45z
m-73 -49 c11 -23 19 -44 16 -46 -8 -8 -26 11 -45 49 -16 31 -17 39 -6 39 8 0
23 -19 35 -42z m186 -28 c-3 -5 -19 -10 -36 -10 -16 0 -29 5 -29 10 0 6 16 10
36 10 21 0 33 -4 29 -10z"/>
<path d="M3607 7003 c-10 -10 -8 -123 2 -123 12 0 25 110 14 121 -5 5 -12 6
-16 2z"/>
<path d="M4015 6918 c-12 -96 -5 -90 -109 -88 -140 4 -127 14 -124 -92 2 -56
7 -92 13 -90 6 1 9 36 7 85 l-4 82 109 -6 c59 -3 113 -2 120 3 7 5 48 6 92 2
87 -7 115 8 39 20 -24 4 -61 11 -82 14 l-40 7 3 58 c3 72 -15 76 -24 5z"/>
<path d="M4277 6913 c-10 -10 -9 -93 2 -93 11 0 22 83 12 93 -4 4 -10 4 -14 0z"/>
<path d="M4716 6873 c-9 -10 -7 -91 3 -97 12 -8 21 18 21 59 0 33 -11 51 -24
38z"/>
<path d="M4469 6769 c-6 -4 -3 -9 7 -13 28 -11 220 -20 211 -11 -10 11 -205
32 -218 24z"/>
<path d="M4087 6688 c-7 -25 0 -41 14 -33 12 8 12 55 0 55 -5 0 -11 -10 -14
-22z"/>
<path d="M3296 6602 c-3 -6 37 -15 101 -23 l107 -14 -2 -60 c-3 -65 11 -104
22 -67 4 11 6 45 4 74 l-3 53 97 5 c53 3 99 8 103 11 3 4 -74 9 -172 13 -98 3
-194 9 -214 12 -20 3 -39 2 -43 -4z"/>
<path d="M3333 6403 c-131 -2 -213 -7 -213 -13 0 -6 34 -10 79 -10 l79 0 -6
-45 c-3 -30 -1 -45 7 -45 9 0 15 30 14 76 0 7 61 13 185 17 106 4 190 11 196
17 7 7 -12 9 -59 8 -39 -2 -166 -4 -282 -5z"/>
<path d="M2118 6033 c-13 -14 -16 -42 -16 -138 0 -121 9 -181 20 -139 3 11 5
74 6 139 0 66 2 122 3 125 2 3 6 -56 9 -130 3 -74 1 -141 -4 -147 -6 -9 -2
-13 15 -14 53 -3 124 3 132 10 4 4 6 75 5 157 l-3 149 -76 3 c-62 2 -78 0 -91
-15z m147 -142 c0 -111 -3 -135 -15 -138 -12 -4 -12 -2 -2 5 10 6 13 36 11
110 -2 148 -3 150 -53 155 -35 4 -34 4 9 3 l50 -1 0 -134z m-34 -64 c-3 -45
-4 -48 -30 -45 -26 3 -26 4 -29 95 l-3 91 28 9 28 10 5 -56 c3 -31 3 -78 1
-104z"/>
<path d="M1420 5913 c-34 -12 -40 -36 -40 -159 0 -74 4 -125 10 -129 12 -7 79
2 98 14 7 4 14 41 17 92 3 46 7 105 10 130 4 37 2 48 -11 53 -18 7 -63 7 -84
-1z m55 -33 c-3 -5 -16 -10 -28 -10 -18 0 -19 2 -7 10 20 13 43 13 35 0z m-14
-217 c-14 -10 -16 -1 -19 79 -2 66 1 94 10 99 10 7 14 -11 19 -79 4 -71 2 -89
-10 -99z"/>
<path d="M6730 6266 c0 -50 11 -78 23 -59 8 13 -5 113 -14 113 -5 0 -9 -24 -9
-54z"/>
<path d="M7920 5590 c0 -27 5 -50 10 -50 6 0 10 23 10 50 0 28 -4 50 -10 50
-5 0 -10 -22 -10 -50z"/>
<path d="M7210 5600 c0 -16 5 -30 10 -30 6 0 10 14 10 30 0 17 -4 30 -10 30
-5 0 -10 -13 -10 -30z"/>
<path d="M5743 5433 c-12 -2 -27 -11 -34 -19 -11 -14 -8 -15 27 -8 21 3 42 9
47 11 9 5 -1 24 -11 22 -4 -1 -17 -4 -29 -6z"/>
<path d="M4792 5182 c2 -61 -1 -85 -11 -91 -7 -5 -10 -14 -7 -20 9 -14 36 -14
56 -1 13 9 13 11 1 19 -17 11 -22 36 -12 63 6 17 10 14 26 -21 10 -23 22 -41
26 -41 5 0 21 24 36 53 l28 52 5 -45 c3 -25 2 -49 -2 -54 -15 -18 -8 -36 13
-36 18 0 20 4 15 38 -3 20 -5 63 -6 95 0 65 -14 72 -40 21 -9 -16 -23 -42 -32
-58 l-16 -30 -25 50 c-14 27 -33 58 -41 69 -15 19 -16 14 -14 -63z"/>
<path d="M5065 5178 c-15 -46 -34 -87 -42 -91 -18 -11 -7 -27 18 -27 12 0 19
7 19 19 0 40 9 48 48 41 33 -5 37 -9 35 -33 -2 -24 2 -27 28 -27 32 0 36 7 15
24 -7 6 -26 48 -41 94 -16 45 -34 82 -40 82 -7 0 -25 -37 -40 -82z m60 -10 c7
-29 -6 -37 -33 -19 -10 6 -11 13 -1 35 14 30 24 25 34 -16z"/>
<path d="M5297 5249 c-57 -9 -72 -20 -87 -63 -22 -67 24 -117 108 -120 l47 -1
1 39 c1 21 7 41 13 46 9 5 8 9 -4 14 -30 11 -65 7 -65 -9 0 -8 7 -15 16 -15
11 0 14 -8 12 -27 -3 -25 -7 -28 -33 -25 -66 8 -95 57 -65 112 14 27 67 36 89
16 17 -16 19 -16 25 -1 12 31 -6 41 -57 34z"/>
<path d="M5399 5246 c-4 -4 -4 -38 -1 -76 3 -44 1 -75 -7 -83 -14 -18 -4 -27
31 -27 30 0 38 17 13 26 -8 4 -15 17 -15 31 0 38 39 26 62 -19 19 -37 21 -37
71 -35 45 2 52 5 50 22 -16 132 -16 135 1 135 28 0 17 17 -15 24 -41 8 -52 0
-35 -27 8 -12 17 -46 20 -75 5 -41 4 -54 -8 -58 -33 -13 -90 46 -67 69 17 17
13 52 -8 71 -19 18 -82 32 -92 22z m78 -43 c16 -20 10 -29 -27 -41 l-30 -11 0
40 c0 37 2 40 23 34 12 -4 27 -14 34 -22z"/>
<path d="M5656 5243 c-3 -3 -6 -46 -6 -95 0 -79 2 -88 19 -88 16 0 17 6 13 49
-4 45 -3 48 18 47 13 0 29 8 36 20 13 19 12 24 -3 42 -19 21 -65 36 -77 25z
m62 -44 c2 -10 -5 -19 -17 -22 -14 -3 -20 1 -24 20 -4 20 -1 24 17 21 11 -2
22 -10 24 -19z"/>
<path d="M5776 5238 c-3 -7 -6 -50 -8 -95 -3 -80 -2 -83 19 -83 13 0 23 5 23
10 0 6 -4 10 -10 10 -5 0 -10 14 -10 30 0 22 5 30 18 30 22 0 52 30 52 52 0
31 -76 73 -84 46z m54 -33 c10 -12 10 -18 0 -30 -21 -25 -40 -18 -40 15 0 33
19 40 40 15z"/>
<path d="M6066 5241 c-4 -6 -5 -15 -2 -20 12 -19 10 -145 -2 -149 -7 -2 -12
-11 -12 -19 0 -13 10 -15 61 -9 71 7 79 11 79 37 0 23 -18 26 -26 4 -4 -8 -18
-15 -34 -15 -27 0 -27 1 -34 82 -7 81 -17 111 -30 89z"/>
<path d="M5886 5160 c-15 -44 -32 -83 -37 -86 -15 -9 0 -24 23 -24 14 0 18 5
14 15 -3 8 -1 27 4 41 8 20 16 25 38 22 24 -3 27 -7 26 -40 -1 -35 1 -38 27
-38 16 0 29 5 29 10 0 6 -4 10 -10 10 -5 0 -12 17 -16 38 -4 20 -10 42 -14 47
-4 6 -13 27 -19 48 -7 20 -18 37 -24 37 -7 0 -25 -36 -41 -80z m54 4 c0 -8 -7
-14 -15 -14 -15 0 -21 21 -9 33 10 9 24 -2 24 -19z"/>
<path d="M6228 5165 c3 -46 0 -80 -7 -89 -14 -16 -4 -26 26 -26 24 0 31 14 13
25 -5 3 -10 19 -10 36 0 26 3 29 30 29 38 0 40 18 3 22 -22 2 -29 9 -31 32 -4
30 -2 30 58 15 8 -2 15 3 15 11 0 11 -14 16 -50 18 l-50 3 3 -76z"/>
<path d="M6387 5220 c-15 -12 -27 -28 -27 -36 0 -8 -7 -17 -15 -20 -8 -4 -15
-12 -15 -19 0 -7 7 -15 15 -19 8 -3 15 -12 15 -20 0 -8 13 -24 29 -35 35 -25
101 -29 101 -6 0 8 0 18 1 22 0 4 -4 9 -10 11 -6 2 -11 -3 -11 -12 0 -9 -7
-16 -15 -16 -19 0 -75 28 -76 38 -7 51 -4 68 17 89 27 27 51 29 76 6 22 -19
37 -9 22 15 -17 26 -75 27 -107 2z"/>
<path d="M6551 5204 c-24 -30 -24 -34 -11 -89 15 -67 67 -86 111 -39 29 31 32
104 4 134 -27 30 -79 26 -104 -6z m87 -6 c30 -30 6 -128 -31 -128 -40 1 -67
82 -40 120 16 22 52 27 71 8z"/>
<path d="M6697 5213 c-14 -13 -6 -36 23 -70 17 -18 30 -38 30 -44 0 -16 -29
-22 -44 -10 -10 9 -15 8 -18 -1 -14 -37 21 -50 60 -22 30 21 28 47 -9 89 -27
31 -29 36 -14 42 11 4 22 0 30 -10 17 -24 25 -21 25 8 0 22 -4 25 -38 25 -21
0 -42 -3 -45 -7z"/>
<path d="M6817 5204 c-14 -14 -7 -24 18 -24 14 0 26 -6 26 -12 4 -40 -2 -92
-11 -102 -13 -16 -3 -26 26 -26 26 0 41 16 22 22 -9 3 -13 25 -13 61 0 56 0
57 28 57 19 0 27 4 25 13 -5 13 -109 23 -121 11z"/>
<path d="M6986 5202 c-28 -4 -29 -4 -22 -55 3 -29 6 -64 6 -79 0 -29 18 -36
54 -22 28 11 19 35 -9 28 -22 -5 -25 -3 -25 20 0 21 5 26 25 26 16 0 25 6 25
15 0 10 -10 15 -30 15 -19 0 -30 5 -30 14 0 22 17 28 40 16 16 -8 20 -8 20 4
0 17 -16 23 -54 18z"/>
<path d="M7075 5188 c-3 -13 -4 -52 -2 -88 1 -51 6 -65 18 -68 14 -3 16 4 11
44 -6 57 13 58 41 1 9 -20 22 -37 27 -37 13 0 13 1 -5 45 -12 26 -13 40 -5 50
16 19 -4 61 -32 68 -38 11 -47 8 -53 -15z m62 -31 c-2 -7 -11 -13 -20 -15 -12
-3 -17 4 -17 23 0 23 2 25 21 15 11 -6 18 -17 16 -23z"/>
<path d="M7193 5197 c2 -7 13 -13 25 -15 20 -3 22 -9 22 -73 0 -39 4 -69 10
-69 6 0 10 28 10 65 0 50 4 67 15 70 42 14 48 16 44 19 -2 2 -32 6 -67 9 -45
4 -62 2 -59 -6z"/>
<path d="M7342 5124 c4 -99 23 -101 23 -2 0 50 -4 73 -13 76 -11 3 -13 -13
-10 -74z"/>
<path d="M7401 5187 c-2 -32 41 -158 52 -154 6 2 18 30 27 63 10 32 20 66 24
75 4 10 3 20 -3 23 -5 3 -18 -17 -29 -46 l-20 -53 -25 55 c-14 30 -26 47 -26
37z"/>
<path d="M7520 5110 c0 -47 4 -80 10 -80 6 0 10 24 10 52 l0 52 22 -22 22 -22
28 27 28 27 0 -57 c0 -31 5 -57 10 -57 11 0 14 143 3 154 -4 4 -21 -10 -38
-30 l-31 -37 -23 36 c-12 21 -27 37 -32 37 -5 0 -9 -36 -9 -80z"/>
<path d="M7823 5178 c-6 -7 -8 -41 -5 -75 5 -66 14 -76 62 -62 14 4 19 8 13 9
-7 1 -17 4 -23 5 -5 1 -14 3 -20 4 -5 0 -10 12 -10 26 0 20 5 25 25 25 14 0
25 4 25 10 0 5 -11 12 -25 16 -32 8 -32 20 0 28 14 4 23 11 20 16 -9 14 -51
12 -62 -2z"/>
<path d="M4995 5170 c-11 -17 5 -32 21 -19 7 6 11 15 8 20 -7 12 -21 11 -29
-1z"/>
<path d="M6020 5166 c0 -9 7 -16 16 -16 9 0 14 5 12 12 -6 18 -28 21 -28 4z"/>
<path d="M7722 5113 c2 -41 7 -66 13 -63 6 3 10 16 10 29 0 16 8 27 25 34 l25
10 -24 6 c-38 10 -38 31 -1 31 18 0 29 4 25 10 -3 6 -22 10 -41 10 l-35 0 3
-67z"/>
<path d="M7935 5156 c-25 -38 -16 -98 17 -113 26 -13 58 -9 58 7 0 5 -15 10
-32 12 -26 2 -34 8 -36 27 -6 39 17 72 45 65 26 -7 32 10 7 20 -28 11 -43 6
-59 -18z"/>
<path d="M8047 5115 c-7 -68 0 -107 13 -84 11 17 12 149 1 149 -4 0 -11 -29
-14 -65z"/>
<path d="M6175 5159 c-10 -15 3 -25 16 -12 7 7 7 13 1 17 -6 3 -14 1 -17 -5z"/>
<path d="M8095 5161 c-6 -11 -3 -13 25 -15 11 -1 16 -17 20 -59 6 -71 25 -71
24 0 -1 47 1 52 24 58 34 8 24 14 -35 20 -31 4 -54 2 -58 -4z"/>
<path d="M6805 5140 c-4 -6 -3 -16 3 -22 13 -13 23 4 13 21 -7 10 -10 10 -16
1z"/>
<path d="M7680 5120 c0 -5 5 -10 10 -10 6 0 10 5 10 10 0 6 -4 10 -10 10 -5 0
-10 -4 -10 -10z"/>
<path d="M6676 4652 c-3 -5 6 -12 20 -15 15 -3 23 0 21 7 -5 14 -33 20 -41 8z"/>
<path d="M8780 4578 c0 -7 14 -14 31 -15 26 -2 29 0 19 12 -15 18 -50 20 -50
3z"/>
<path d="M4480 4540 c-18 -11 -13 -16 28 -25 33 -7 41 2 20 23 -14 14 -28 15
-48 2z"/>
<path d="M6147 4543 c-14 -13 -6 -24 12 -18 11 3 22 1 26 -5 3 -6 11 -8 16 -4
14 8 -9 34 -31 34 -9 0 -20 -3 -23 -7z"/>
<path d="M6945 4556 c-17 -12 -15 -13 15 -20 41 -8 45 -4 22 17 -16 14 -21 15
-37 3z"/>
<path d="M7637 4563 c-12 -12 -7 -25 7 -20 7 3 19 0 25 -6 16 -16 26 0 11 18
-13 16 -32 20 -43 8z"/>
<path d="M8223 4573 c-7 -2 -13 -9 -13 -15 0 -6 6 -8 14 -5 7 3 19 0 25 -6 16
-16 26 0 11 18 -13 16 -17 17 -37 8z"/>
<path d="M3555 4527 c-16 -13 -15 -14 20 -20 45 -7 53 -3 35 18 -15 19 -31 19
-55 2z"/>
<path d="M5345 4538 c-19 -11 -17 -13 15 -19 41 -9 48 -5 30 16 -15 18 -19 18
-45 3z"/>
<path d="M6483 4406 c-61 -12 -81 -21 -72 -31 3 -2 41 2 84 10 44 8 81 14 83
15 1 0 2 5 2 10 0 12 -17 12 -97 -4z"/>
<path d="M3307 4524 c-12 -13 -7 -24 8 -18 8 4 22 0 31 -7 14 -12 16 -11 13 6
-4 20 -38 32 -52 19z"/>
<path d="M3380 4510 c0 -5 12 -10 26 -10 14 0 23 4 19 10 -3 6 -15 10 -26 10
-10 0 -19 -4 -19 -10z"/>
<path d="M3010 4512 c0 -5 7 -13 16 -16 10 -4 14 -1 12 6 -5 15 -28 23 -28 10z"/>
<path d="M3126 4501 c-3 -5 1 -11 9 -15 8 -3 15 -1 15 4 0 13 -18 22 -24 11z"/>
<path d="M3160 4490 c0 -5 5 -10 10 -10 6 0 10 5 10 10 0 6 -4 10 -10 10 -5 0
-10 -4 -10 -10z"/>
<path d="M3980 3781 c0 -11 40 -31 61 -31 16 0 10 17 -8 23 -10 2 -26 8 -35
12 -11 4 -18 3 -18 -4z"/>
<path d="M2470 4345 c14 -16 40 -20 40 -6 0 9 -24 21 -42 21 -6 0 -6 -6 2 -15z"/>
<path d="M5936 3292 c-9 -29 3 -51 16 -28 5 10 5 23 0 33 -9 14 -10 14 -16 -5z"/>
<path d="M4015 3029 c-4 -5 6 -14 20 -19 33 -12 45 -13 45 -1 0 13 -58 32 -65
20z"/>
<path d="M1445 2870 c-11 -17 5 -32 21 -19 8 6 14 15 14 20 0 12 -27 11 -35
-1z"/>
<path d="M1335 2821 c-8 -14 9 -21 64 -27 53 -5 74 8 42 25 -24 13 -98 14
-106 2z"/>
<path d="M1244 2736 c-10 -8 -16 -18 -12 -22 9 -8 68 15 68 27 0 14 -34 11
-56 -5z"/>
<path d="M1402 2673 c2 -10 11 -19 21 -21 16 -3 17 -1 5 17 -16 25 -31 27 -26
4z"/>
<path d="M1673 2677 c4 -14 102 -18 132 -6 24 9 20 10 -68 14 -49 3 -67 0 -64
-8z"/>
<path d="M1432 2623 c2 -10 11 -19 21 -21 16 -3 17 -1 5 17 -16 25 -31 27 -26
4z"/>
<path d="M2020 2631 c0 -5 8 -23 17 -39 21 -36 47 -42 151 -34 101 7 90 24
-15 21 -86 -2 -86 -2 -112 30 -26 31 -41 39 -41 22z"/>
<path d="M1560 2621 c0 -10 69 -23 82 -15 4 3 6 10 3 15 -8 11 -85 12 -85 0z"/>
<path d="M1848 2623 c-45 -7 -32 -24 15 -21 23 2 41 8 40 13 -2 12 -17 14 -55
8z"/>
<path d="M1369 2606 c-3 -3 -25 -6 -49 -7 -55 -3 -72 -8 -64 -21 3 -5 24 -7
45 -4 21 3 57 9 79 12 43 6 55 24 17 24 -13 0 -26 -2 -28 -4z"/>
<path d="M1660 2595 c0 -14 44 -25 101 -25 39 0 46 6 31 25 -11 15 -132 15
-132 0z"/>
<path d="M1531 2529 c-52 -10 -49 -8 -57 -47 -4 -21 -3 -32 5 -32 6 0 11 8 11
19 0 34 20 41 148 50 6 1 12 6 12 11 0 12 -57 11 -119 -1z"/>
<path d="M1713 2519 c-40 -12 -45 -33 -5 -25 23 6 30 2 45 -24 31 -52 46 -36
22 23 -6 15 0 17 59 17 55 0 69 -4 86 -22 18 -20 30 -22 118 -23 53 0 102 -3
109 -8 15 -10 25 6 17 28 -5 12 -13 15 -33 10 -14 -4 -60 -8 -101 -9 -66 -3
-77 0 -92 18 -14 18 -29 21 -105 23 -48 1 -103 -2 -120 -8z"/>
<path d="M2170 2525 c0 -2 14 -12 31 -20 l31 -16 -26 -24 c-18 -17 -39 -25
-69 -26 -54 -2 -77 -8 -77 -20 0 -6 24 -9 58 -8 85 3 89 2 101 -32 11 -31 10
-31 -17 -24 -54 15 -113 22 -118 13 -10 -16 -44 -8 -44 11 0 10 -6 24 -14 30
-22 19 -30 -6 -12 -34 9 -14 12 -25 6 -25 -5 0 -10 -5 -10 -11 0 -7 13 -8 38
-4 33 5 40 3 49 -17 15 -33 11 -43 -17 -43 -35 0 -37 -19 -3 -23 15 -2 32 -8
38 -13 6 -6 -12 -7 -50 -4 -81 9 -85 11 -85 39 0 23 -3 25 -76 28 -41 2 -78 0
-82 -4 -4 -3 -20 -8 -37 -10 -42 -4 -32 -24 10 -21 53 4 46 -24 -7 -32 -24 -3
-52 -9 -63 -12 -19 -6 -18 -6 4 -14 12 -5 27 -6 32 -3 5 3 46 6 90 6 78 0 99
-7 106 -34 9 -44 7 -51 -17 -54 -54 -6 -178 -13 -232 -14 -37 0 -58 -4 -58
-11 0 -9 39 -10 145 -5 206 9 235 17 201 55 -18 20 -21 57 -6 66 19 12 141 -7
147 -22 8 -20 1 -24 -61 -30 -66 -7 -77 -27 -11 -21 39 3 44 1 39 -15 -5 -17
1 -18 79 -16 47 1 91 6 99 10 16 11 11 12 -80 14 -40 2 -76 5 -79 9 -4 3 4 6
17 6 13 0 32 7 42 16 12 12 43 19 94 22 73 5 76 6 71 28 -2 13 1 25 7 27 8 3
8 8 -1 17 -9 9 -19 9 -47 -1 -37 -13 -45 -24 -23 -32 21 -7 4 -14 -51 -22 -42
-5 -51 -4 -47 7 3 7 -4 17 -17 23 -37 16 -27 30 24 33 25 2 52 10 58 18 7 8
30 14 51 14 22 0 39 5 39 10 0 6 -9 10 -20 10 -11 0 -20 4 -20 10 0 5 -13 7
-32 3 -27 -5 -30 -4 -25 11 4 10 7 22 7 27 0 5 23 9 50 9 28 0 50 4 50 9 0 11
-90 19 -97 8 -7 -12 -23 3 -23 22 0 10 9 21 20 24 18 5 19 7 4 36 -9 17 -24
36 -34 41 -19 10 -50 14 -50 5z m43 -197 c30 -15 13 -33 -34 -36 -40 -3 -47 0
-57 22 -6 13 -8 26 -5 29 7 7 73 -3 96 -15z m-255 -80 c2 -20 -1 -27 -10 -23
-7 2 -28 6 -47 9 -37 5 -57 26 -38 38 7 5 30 7 52 6 35 -3 40 -6 43 -30z"/>
<path d="M1370 2511 c0 -16 17 -21 49 -15 44 9 38 24 -9 24 -22 0 -40 -4 -40
-9z"/>
<path d="M1372 2462 c-34 -10 -26 -27 11 -23 37 3 47 8 47 22 0 10 -23 10 -58
1z"/>
<path d="M1653 2453 c-57 -3 -73 -7 -73 -19 0 -12 13 -14 78 -10 50 4 68 3 52
-3 -14 -5 -42 -9 -62 -10 -27 -1 -38 -6 -38 -16 0 -11 11 -15 40 -15 33 0 40
-3 38 -17 -3 -16 8 -19 78 -24 112 -8 157 -6 161 8 3 9 -10 12 -48 11 -37 -2
-54 1 -57 11 -4 11 3 12 32 7 22 -4 36 -3 36 3 0 13 -37 23 -71 20 -38 -3 -61
0 -55 9 6 10 -22 53 -32 50 -4 -1 -40 -4 -79 -5z m135 -87 c3 -3 -15 -6 -39
-6 -28 0 -39 3 -31 9 14 9 60 7 70 -3z"/>
<path d="M1400 2387 c0 -8 7 -20 15 -27 26 -22 6 -30 -76 -30 -47 0 -78 4 -74
9 3 5 1 13 -5 16 -8 5 -7 11 1 21 9 11 7 14 -10 14 -17 0 -21 -6 -21 -34 0
-26 -5 -36 -20 -41 -30 -10 -26 -38 5 -33 19 4 25 1 25 -13 0 -30 18 -22 22 9
l3 27 95 3 c52 2 99 7 104 12 7 7 6 10 -1 10 -6 0 -13 9 -16 20 -4 15 0 20 13
20 11 0 22 5 25 10 3 6 0 10 -8 10 -8 0 -29 3 -46 6 -24 5 -31 3 -31 -9z"/>
<path d="M1946 2361 c-4 -5 -2 -12 3 -15 5 -4 12 -2 15 3 4 5 2 12 -3 15 -5 4
-12 2 -15 -3z"/>
<path d="M1523 2238 c2 -7 9 -13 15 -12 7 1 30 2 52 3 62 2 47 21 -16 21 -40
0 -55 -3 -51 -12z"/>
<path d="M1235 2208 c-34 -13 -72 -46 -76 -68 -7 -33 13 -70 61 -113 27 -25
55 -47 62 -50 26 -9 -1 -18 -56 -18 -31 -1 -56 -5 -56 -10 0 -12 75 -30 94
-23 9 3 16 1 16 -5 0 -6 -15 -12 -32 -12 -18 -1 -40 -3 -48 -4 -8 -1 -22 -3
-30 -4 -12 -1 -11 -4 3 -12 11 -6 37 -8 60 -5 91 13 164 20 210 20 49 -1 51 2
37 46 -8 24 -9 24 -15 4 -5 -16 -19 -23 -66 -30 -63 -11 -78 -8 -77 16 3 46
-3 60 -24 60 l-23 0 24 19 c14 10 45 21 69 24 24 3 51 12 60 21 14 14 14 17
-1 34 -27 29 -22 52 11 52 32 0 81 -29 50 -30 -10 0 -18 -4 -18 -10 0 -12 53
-20 105 -16 56 4 57 5 50 16 -3 5 -20 8 -38 7 -23 -3 -42 5 -68 25 -38 29 -86
37 -106 17 -8 -8 -13 -8 -17 0 -4 6 -14 11 -23 11 -9 0 -26 11 -39 25 -25 27
-51 30 -99 13z m65 -18 c0 -5 -2 -10 -4 -10 -3 0 -8 5 -11 10 -3 6 -1 10 4 10
6 0 11 -4 11 -10z m-1 -49 c20 -15 51 -36 70 -46 40 -20 28 -35 -30 -35 -20 0
-42 -7 -49 -15 -20 -24 -46 -18 -79 20 -37 42 -39 67 -8 88 32 23 55 20 96
-12z m84 2 c4 -2 7 -8 7 -14 0 -17 -37 -9 -56 12 -18 20 -18 20 11 13 17 -4
33 -9 38 -11z"/>
<path d="M1625 2203 c-72 -6 -82 -23 -13 -23 62 0 91 7 82 21 -3 5 -8 8 -12 7
-4 -1 -29 -3 -57 -5z"/>
<path d="M1593 2143 c9 -9 19 -14 23 -11 10 10 -6 28 -24 28 -15 0 -15 -1 1
-17z"/>
<path d="M2323 2116 c18 -19 35 -24 95 -28 39 -3 72 -2 72 3 0 12 -32 20 -84
21 -25 0 -51 7 -57 14 -6 8 -20 14 -30 14 -16 0 -16 -2 4 -24z"/>
<path d="M1770 2053 c0 -21 33 -92 43 -93 13 0 7 29 -14 70 -23 44 -29 49 -29
23z"/>
<path d="M1875 2048 c8 -26 42 -65 49 -57 9 9 -28 79 -42 79 -9 0 -11 -7 -7
-22z"/>
<path d="M1990 2064 c0 -16 23 -44 35 -44 19 0 19 5 -2 30 -17 19 -33 26 -33
14z"/>
<path d="M2147 2001 c20 -19 30 -21 88 -15 84 9 94 24 17 24 -33 0 -75 3 -93
6 l-34 7 22 -22z"/>
<path d="M1420 1994 c0 -14 14 -18 63 -14 17 1 27 -3 27 -12 0 -11 18 -13 93
-10 92 4 157 21 157 41 0 15 -37 13 -85 -4 -45 -16 -106 -19 -120 -6 -6 5 -38
11 -72 14 -50 4 -63 2 -63 -9z"/>
<path d="M2075 1978 c8 -27 35 -58 35 -41 0 7 -4 23 -10 37 -12 32 -34 35 -25
4z"/>
<path d="M1850 1932 c-25 -1 -54 -7 -65 -12 -11 -5 -49 -11 -85 -12 -50 -2
-65 -6 -65 -18 0 -16 14 -17 98 -6 44 5 48 4 57 -19 13 -35 28 -31 32 7 3 29
7 33 41 39 69 11 60 26 -13 21z"/>
<path d="M2242 1913 c-36 -3 -52 -8 -49 -16 6 -18 88 -20 130 -2 62 26 55 27
-81 18z"/>
<path d="M2021 1888 c-12 -4 -21 -12 -21 -18 0 -5 -7 -10 -15 -10 -21 0 -19
-27 3 -34 10 -4 52 -8 93 -11 70 -4 74 -5 83 -32 12 -38 25 -53 47 -53 24 0
24 11 -1 42 -24 31 -44 76 -44 103 -1 18 -8 20 -63 21 -34 0 -71 -3 -82 -8z
m119 -34 c0 -21 -26 -28 -73 -18 -51 11 -51 27 0 34 49 7 73 1 73 -16z"/>
<path d="M2380 1890 c0 -5 5 -10 12 -10 6 0 8 -3 5 -6 -4 -4 -54 -6 -111 -6
-100 1 -145 -10 -93 -23 29 -8 234 -1 243 7 3 4 1 16 -6 27 -11 21 -50 30 -50
11z"/>
<path d="M1343 1877 c-47 -7 -63 -14 -63 -26 0 -9 -3 -26 -6 -38 -5 -17 -2
-23 10 -23 10 0 15 4 12 8 -10 17 25 51 60 58 26 5 38 2 47 -10 9 -12 32 -16
102 -17 80 -1 92 -3 107 -22 20 -27 28 -21 21 16 -6 29 -3 28 -113 32 -81 3
-114 7 -102 12 6 2 12 9 12 14 0 10 -1 10 -87 -4z"/>
<path d="M2500 1860 c0 -19 95 -36 105 -20 3 6 -3 10 -14 10 -11 0 -23 5 -26
10 -8 13 -65 13 -65 0z"/>
<path d="M2466 1812 c-3 -5 4 -23 15 -40 10 -18 19 -34 19 -36 0 -2 -31 -7
-70 -10 -64 -7 -70 -9 -70 -29 0 -27 28 -69 41 -62 5 4 2 17 -7 31 -9 13 -14
27 -12 30 3 2 36 6 74 8 39 1 69 7 72 14 3 10 -45 102 -53 102 -2 0 -6 -4 -9
-8z"/>
<path d="M1530 1795 c0 -8 -7 -15 -15 -15 -27 0 -145 -43 -145 -52 0 -6 11 -7
28 -3 15 4 54 10 87 14 59 6 60 7 63 39 2 18 -1 32 -7 32 -6 0 -11 -7 -11 -15z"/>
<path d="M1850 1779 c0 -21 -7 -28 -40 -38 -55 -16 -67 -41 -48 -108 10 -39
33 -46 24 -8 -3 14 -9 36 -12 50 -9 37 44 57 144 53 45 -2 79 1 82 7 3 6 -8
10 -25 11 -51 2 -89 15 -107 38 l-18 21 0 -26z"/>
<path d="M2535 1761 c-3 -5 -1 -12 3 -15 13 -8 82 5 82 15 0 12 -77 11 -85 0z"/>
<path d="M1612 1751 c-11 -7 -10 -10 3 -15 26 -9 138 -7 155 4 11 7 -5 10 -52
10 -36 0 -72 2 -80 5 -7 3 -19 1 -26 -4z"/>
<path d="M1505 1710 c-4 -6 -1 -17 5 -25 14 -17 40 -20 40 -5 0 6 -4 10 -10
10 -5 0 -10 7 -10 15 0 17 -16 20 -25 5z"/>
<path d="M2290 1710 c0 -5 11 -10 25 -10 14 0 25 5 25 10 0 6 -11 10 -25 10
-14 0 -25 -4 -25 -10z"/>
<path d="M2080 1648 c0 -32 3 -39 12 -30 8 8 15 9 25 0 22 -18 24 -5 6 35 -23
51 -43 48 -43 -5z"/>
<path d="M2594 1654 c6 -28 5 -30 -55 -47 -45 -13 -64 -15 -69 -7 -5 8 -12 7
-22 -4 -13 -12 -41 -15 -149 -13 -82 1 -136 -2 -139 -8 -3 -6 47 -11 137 -13
136 -2 143 -4 155 -25 l12 -22 6 24 c4 18 18 29 55 42 28 10 65 18 83 18 37 1
36 -1 16 39 -21 44 -38 52 -30 16z"/>
<path d="M1914 1655 c-3 -8 -3 -19 1 -25 11 -18 25 -11 25 15 0 27 -17 34 -26
10z"/>
<path d="M2000 1601 c0 -10 25 -21 48 -21 15 1 14 3 -2 15 -22 17 -46 20 -46
6z"/>
<path d="M2597 1571 c-68 -9 -59 -27 11 -22 31 1 60 5 65 8 11 6 -2 23 -16 21
-7 0 -33 -4 -60 -7z"/>
<path d="M4063 2250 c-88 -18 -138 -67 -98 -96 60 -44 339 -20 359 31 20 54
-129 91 -261 65z m211 -30 c75 -28 -12 -63 -161 -64 -94 -1 -115 2 -129 16
-17 16 -15 18 27 37 34 16 66 21 141 21 53 0 108 -4 122 -10z"/>
</g>
</svg>
