<?xml version="1.0" standalone="no"?>
<!DOCTYPE svg PUBLIC "-//W3C//DTD SVG 20010904//EN"
 "http://www.w3.org/TR/2001/REC-SVG-20010904/DTD/svg10.dtd">
<svg version="1.0" xmlns="http://www.w3.org/2000/svg"
 width="56.000000pt" height="56.000000pt" viewBox="0 0 56.000000 56.000000"
 preserveAspectRatio="xMidYMid meet">

<g transform="translate(0.000000,56.000000) scale(0.100000,-0.100000)"
fill="#000000" stroke="none">
<path d="M210 507 c0 -17 -13 -32 -49 -56 -57 -36 -101 -112 -101 -171 0 -61
47 -140 104 -175 43 -26 59 -30 121 -30 62 0 78 4 121 30 59 37 103 109 104
170 0 67 -41 140 -100 177 -37 23 -50 37 -50 54 0 23 -3 24 -75 24 -72 0 -75
-1 -75 -23z m128 -28 c-5 -3 4 -9 20 -12 68 -14 142 -112 142 -187 0 -105
-103 -200 -215 -200 -112 0 -215 95 -215 200 0 75 74 173 142 187 16 3 25 9
20 12 -6 3 18 6 53 6 35 0 59 -3 53 -6z"/>
<path d="M282 363 l-2 -93 78 2 77 2 -72 3 -72 4 -4 87 -3 87 -2 -92z"/>
</g>
</svg>
