<?xml version="1.0" standalone="no"?>
<!DOCTYPE svg PUBLIC "-//W3C//DTD SVG 20010904//EN"
 "http://www.w3.org/TR/2001/REC-SVG-20010904/DTD/svg10.dtd">
<svg version="1.0" xmlns="http://www.w3.org/2000/svg"
 width="58.000000pt" height="56.000000pt" viewBox="0 0 58.000000 56.000000"
 preserveAspectRatio="xMidYMid meet">

<g transform="translate(0.000000,56.000000) scale(0.100000,-0.100000)"
fill="#000000" stroke="none">
<path d="M289 474 c-13 -24 -26 -44 -30 -44 -3 0 -18 -22 -33 -50 -15 -27 -31
-50 -37 -50 -5 0 -9 -7 -9 -15 0 -27 14 -16 34 25 18 38 36 52 36 30 0 -16 32
-12 44 6 6 8 18 16 26 17 8 2 21 6 29 11 15 10 41 -17 41 -41 0 -7 4 -13 9
-13 5 0 22 -27 37 -60 15 -33 30 -60 34 -60 8 0 30 -46 30 -60 0 -6 -54 -10
-129 -10 l-129 0 -23 55 c-12 30 -26 55 -31 55 -4 0 -8 4 -8 9 0 5 -7 25 -16
46 -15 36 -16 37 -33 19 -9 -11 -30 -45 -45 -76 -16 -32 -32 -58 -36 -58 -5 0
-13 -14 -19 -30 l-10 -30 249 0 250 0 -10 26 c-13 34 -31 68 -40 74 -4 3 -20
32 -35 65 -16 33 -32 62 -36 65 -4 3 -20 30 -35 60 -41 83 -47 85 -75 34z m57
-20 c7 -28 -1 -44 -23 -44 -9 0 -24 -7 -32 -14 -21 -19 -50 -5 -32 15 7 8 21
29 31 46 22 37 46 35 56 -3z m-184 -184 c-3 -8 -2 -12 3 -8 9 9 27 -9 43 -45
24 -54 20 -57 -78 -57 -73 0 -90 3 -90 15 0 8 4 15 9 15 5 0 16 16 25 35 14
29 22 35 43 33 14 -2 28 2 30 8 2 7 -6 10 -22 6 -20 -3 -24 -1 -19 12 3 9 10
16 14 16 4 0 11 10 15 23 6 21 7 21 20 -8 7 -16 10 -36 7 -45z"/>
</g>
</svg>
